<svg width="36" height="36" viewBox="0 0 36 36" fill="none" xmlns="http://www.w3.org/2000/svg">
<path d="M12.386 26C11.1287 26 10.5 25.5702 10.5 24.7105C10.5 24.1374 10.6725 23.5322 11.0175 22.8947C11.3684 22.2515 11.8713 21.6491 12.5263 21.0877C13.1813 20.5205 13.9737 20.0585 14.9035 19.7018C15.8333 19.345 16.886 19.1667 18.0614 19.1667C19.231 19.1667 20.2807 19.345 21.2105 19.7018C22.1404 20.0585 22.9327 20.5205 23.5877 21.0877C24.2427 21.6491 24.7427 22.2515 25.0877 22.8947C25.4386 23.5322 25.614 24.1374 25.614 24.7105C25.614 25.5702 24.9825 26 23.7193 26H12.386ZM12.1228 24.9825H24C24.1988 24.9825 24.3363 24.9532 24.4123 24.8947C24.4942 24.8421 24.5351 24.7456 24.5351 24.6053C24.5351 24.1842 24.3918 23.7222 24.1053 23.2193C23.8187 22.7164 23.3977 22.2339 22.8421 21.7719C22.2924 21.3099 21.614 20.9327 20.807 20.6404C20.0058 20.3421 19.0906 20.193 18.0614 20.193C17.0263 20.193 16.1053 20.3421 15.2982 20.6404C14.4971 20.9327 13.8187 21.3099 13.2632 21.7719C12.7135 22.2339 12.2953 22.7164 12.0088 23.2193C11.7222 23.7222 11.5789 24.1842 11.5789 24.6053C11.5789 24.7456 11.617 24.8421 11.693 24.8947C11.7749 24.9532 11.9181 24.9825 12.1228 24.9825ZM18.0702 17.9649C17.386 17.9649 16.7661 17.7865 16.2105 17.4298C15.655 17.0673 15.2105 16.5819 14.8772 15.9737C14.5497 15.3655 14.386 14.6901 14.386 13.9474C14.386 13.2222 14.5497 12.5614 14.8772 11.9649C15.2105 11.3684 15.655 10.8918 16.2105 10.5351C16.7719 10.1784 17.3918 10 18.0702 10C18.7485 10 19.3655 10.1754 19.9211 10.5263C20.4825 10.8772 20.9269 11.3509 21.2544 11.9474C21.5877 12.5439 21.7544 13.2047 21.7544 13.9298C21.7544 14.6784 21.5877 15.3596 21.2544 15.9737C20.9269 16.5819 20.4825 17.0673 19.9211 17.4298C19.3655 17.7865 18.7485 17.9649 18.0702 17.9649ZM18.0702 16.9474C18.5497 16.9474 18.9854 16.8129 19.3772 16.5439C19.7749 16.2749 20.0877 15.9123 20.3158 15.4561C20.5497 15 20.6667 14.4912 20.6667 13.9298C20.6667 13.386 20.5497 12.8947 20.3158 12.4561C20.0819 12.0117 19.769 11.6608 19.3772 11.4035C18.9854 11.1462 18.5497 11.0175 18.0702 11.0175C17.5906 11.0175 17.152 11.1491 16.7544 11.4123C16.3626 11.6696 16.0497 12.0205 15.8158 12.4649C15.5819 12.9094 15.4649 13.4035 15.4649 13.9474C15.4649 14.5088 15.5819 15.0175 15.8158 15.4737C16.0497 15.924 16.3626 16.2836 16.7544 16.5526C17.152 16.8158 17.5906 16.9474 18.0702 16.9474Z" fill="black"/>
</svg>
