<svg width="12" height="15" viewBox="0 0 12 15" fill="none" xmlns="http://www.w3.org/2000/svg">
<path d="M5 3.88721C4.60444 3.88721 4.21776 4.0045 3.88886 4.22427C3.55996 4.44403 3.30362 4.75639 3.15224 5.12184C3.00087 5.48729 2.96126 5.88942 3.03843 6.27739C3.1156 6.66535 3.30608 7.02171 3.58579 7.30142C3.86549 7.58112 4.22186 7.77161 4.60982 7.84878C4.99778 7.92595 5.39991 7.88634 5.76537 7.73497C6.13082 7.58359 6.44318 7.32724 6.66294 6.99835C6.8827 6.66945 7 6.28277 7 5.88721C6.9994 5.35696 6.78849 4.8486 6.41355 4.47366C6.0386 4.09872 5.53025 3.88781 5 3.88721ZM5 6.88721C4.80222 6.88721 4.60888 6.82856 4.44443 6.71868C4.27998 6.60879 4.15181 6.45262 4.07612 6.26989C4.00043 6.08716 3.98063 5.8861 4.01921 5.69212C4.0578 5.49814 4.15304 5.31995 4.29289 5.1801C4.43275 5.04025 4.61093 4.94501 4.80491 4.90642C4.99889 4.86784 5.19996 4.88764 5.38268 4.96333C5.56541 5.03902 5.72159 5.16719 5.83147 5.33164C5.94135 5.49609 6 5.68943 6 5.88721C5.99969 6.15233 5.89424 6.40651 5.70677 6.59398C5.5193 6.78145 5.26512 6.8869 5 6.88721Z" fill="black"/>
<path d="M9.24258 1.62861C8.19353 0.589084 6.79318 -0.0284339 5.3118 -0.104767C3.83042 -0.1811 2.37301 0.289164 1.22087 1.21526C0.0687318 2.14136 -0.696471 3.45764 -0.92705 4.91006C-1.15763 6.36248 -0.83724 7.84808 -0.0277172 9.08013L4.14355 15.4272C4.23637 15.5685 4.36329 15.6845 4.5128 15.7648C4.66231 15.8451 4.82968 15.8872 4.99974 15.8872C5.1698 15.8872 5.33718 15.8451 5.48669 15.7648C5.6362 15.6845 5.76312 15.5685 5.85594 15.4272L10.0273 9.08013C10.7785 7.93723 11.1104 6.57313 10.9676 5.21649C10.8247 3.85985 10.2157 2.59311 9.24258 1.62861ZM9.10233 8.48284L4.99976 14.7252L0.897152 8.48284C-0.358639 6.57205 -0.0892991 4.01492 1.53757 2.40234C1.99223 1.95169 2.53199 1.5942 3.12603 1.35031C3.72008 1.10642 4.35677 0.980885 4.99976 0.980885C5.64275 0.980885 6.27945 1.10642 6.87349 1.35031C7.46753 1.5942 8.00729 1.95169 8.46195 2.40234C10.0888 4.01492 10.3581 6.57205 9.10233 8.48284Z" fill="black"/>
</svg>
