<svg width="76" height="36" viewBox="0 0 76 36" fill="none" xmlns="http://www.w3.org/2000/svg">
<path d="M68.5264 0.00976562C69.0864 0.0146856 69.4816 0.02184 69.8066 0.0322266C70.4012 0.0513527 70.8482 0.0856484 71.2559 0.143555C71.925 0.2384 72.4799 0.400606 73 0.652344C73.5134 0.901029 73.9773 1.23166 74.3779 1.63574C74.7784 2.03945 75.1064 2.50673 75.3525 3.02441C75.6018 3.54828 75.761 4.10643 75.8555 4.78027C75.9133 5.19353 75.9485 5.64504 75.9678 6.24414C75.9784 6.57624 75.9854 6.97498 75.9902 7.53613C75.9951 8.10711 75.9981 8.86678 76 10.0762V25.5957C75.9981 26.8041 75.9954 27.5638 75.9902 28.1348C75.9854 28.6959 75.9784 29.0944 75.9678 29.4268C75.9485 30.0259 75.9133 30.4773 75.8555 30.8906C75.761 31.5646 75.6016 32.1226 75.3525 32.6465C75.1064 33.1642 74.7784 33.6315 74.3779 34.0352C73.9773 34.4392 73.5134 34.7699 73 35.0186C72.4796 35.2703 71.925 35.4322 71.2559 35.5273C70.8484 35.585 70.4013 35.6195 69.8066 35.6387C69.4816 35.6493 69.0867 35.6562 68.5264 35.6611C67.9509 35.6663 67.1889 35.669 66.0068 35.6709H9.99219C8.81109 35.669 8.04881 35.666 7.47363 35.6611C6.91334 35.6562 6.51814 35.6493 6.19336 35.6387C5.59884 35.6195 5.15182 35.5852 4.74414 35.5273C4.07504 35.4325 3.52014 35.2706 3 35.0186C2.48661 34.7699 2.02268 34.4392 1.62207 34.0352C1.22159 33.6315 0.893556 33.1642 0.647461 32.6465C0.398167 32.1226 0.238963 31.5644 0.144531 30.8906C0.0867454 30.4771 0.0514924 30.0255 0.0322266 29.4268C0.0216447 29.0947 0.0146496 28.6959 0.00976562 28.1348C0.00488169 27.5641 0.00189931 26.8045 0 25.5947V10.0742C0.00189927 8.86565 0.00488297 8.10648 0.00976562 7.53613C0.0146487 6.97481 0.0216479 6.57647 0.0322266 6.24414C0.051491 5.64527 0.086738 5.19382 0.144531 4.78027C0.23895 4.10631 0.398412 3.54835 0.647461 3.02441C0.893557 2.50673 1.22159 2.03945 1.62207 1.63574C2.02268 1.23166 2.4866 0.901028 3 0.652344C3.52041 0.400606 4.07504 0.238674 4.74414 0.143555C5.15162 0.0858993 5.59871 0.0513567 6.19336 0.0322266C6.51841 0.0215667 6.91334 0.0146856 7.47363 0.00976562C8.04911 0.00484632 8.81107 0.00191317 9.99316 0H66.0078L68.5264 0.00976562ZM7.47852 0.556641C6.91171 0.561561 6.52324 0.568012 6.21094 0.578125C5.61513 0.597259 5.18887 0.632093 4.81934 0.68457C4.19866 0.772861 3.69573 0.921799 3.23535 1.14453C2.77713 1.36647 2.36154 1.66389 2.00586 2.02246C1.65018 2.38105 1.35594 2.79967 1.13672 3.26074C0.916524 3.72414 0.769267 4.23056 0.681641 4.85645C0.629546 5.22927 0.594731 5.66013 0.575195 6.26172C0.565156 6.57714 0.55789 6.96921 0.552734 7.54102C0.54758 8.12047 0.544868 8.88779 0.542969 10.0762V25.5957C0.544868 26.784 0.547579 27.5514 0.552734 28.1309C0.557616 28.7024 0.565165 29.0939 0.575195 29.4092C0.594459 30.0105 0.629548 30.4416 0.681641 30.8145C0.76928 31.4409 0.916399 31.9476 1.13672 32.4111C1.35595 32.8722 1.64991 33.2906 2.00586 33.6494C2.36172 34.0081 2.77728 34.3048 3.23535 34.5264C3.69572 34.7494 4.19868 34.898 4.81934 34.9863C5.18914 35.0388 5.61541 35.0736 6.21094 35.0928C6.52324 35.1029 6.91171 35.1103 7.47852 35.1152C8.05291 35.1204 8.81378 35.1231 9.99316 35.125H66.0078C67.1868 35.1231 67.9472 35.1202 68.5215 35.1152C69.0882 35.1103 69.4768 35.1029 69.7891 35.0928C70.3849 35.0736 70.8111 35.0388 71.1807 34.9863C71.8014 34.898 72.3042 34.7491 72.7646 34.5264C73.2227 34.3045 73.6383 34.0081 73.9941 33.6494C74.3498 33.2909 74.6441 32.8721 74.8633 32.4111C75.0836 31.9476 75.2307 31.4407 75.3184 30.8145C75.3707 30.4416 75.4062 30.0108 75.4258 29.4092C75.4358 29.0939 75.4421 28.7022 75.4473 28.1309C75.4524 27.5514 75.4561 26.784 75.458 25.5957V10.0762C75.4561 8.88773 75.4524 8.12048 75.4473 7.54102C75.4424 6.96903 75.4358 6.57711 75.4258 6.26172C75.4062 5.66069 75.3704 5.23012 75.3184 4.85742C75.2307 4.23095 75.0836 3.72431 74.8633 3.26074C74.6441 2.79964 74.3501 2.38134 73.9941 2.02246C73.6382 1.66366 73.2228 1.36616 72.7646 1.14453C72.3043 0.921543 71.8014 0.772844 71.1807 0.68457C70.8108 0.632093 70.3846 0.598234 69.7891 0.579102C69.4768 0.568991 69.0882 0.56156 68.5215 0.556641C67.9472 0.55145 67.1868 0.548788 66.0078 0.546875H9.99316C8.81378 0.548788 8.05291 0.551721 7.47852 0.556641ZM21.5566 11.6094C22.1824 11.6561 23.9583 11.8446 25.1084 13.5498C25.0161 13.6069 22.9906 14.7945 23.0137 17.2656C23.0392 20.2212 25.5859 21.2056 25.6152 21.2168C25.5924 21.2873 25.2077 22.619 24.2725 23.9941C23.4643 25.1854 22.6269 26.3699 21.3057 26.3945C20.0074 26.4186 19.5886 25.6182 18.1055 25.6182C16.6218 25.6183 16.1573 26.3693 14.9297 26.418C13.6545 26.4666 12.6834 25.1319 11.8691 23.9473C10.2045 21.5228 8.93186 17.0952 10.6406 14.1074C11.4888 12.6235 13.005 11.6835 14.6504 11.6592C15.9031 11.6351 17.0851 12.5078 17.8516 12.5078C18.607 12.5075 19.9609 11.4905 21.5566 11.6094ZM21.5781 6.8916C21.7037 8.03461 21.2471 9.18364 20.5693 10.0088C19.8921 10.8345 18.7828 11.4756 17.6953 11.3906C17.546 10.2713 18.0963 9.10164 18.7227 8.37109C19.4224 7.54645 20.6027 6.93069 21.5781 6.8916Z" fill="#121212"/>
<path d="M31.4068 10.0362H33.7655C35.0087 10.0362 35.8696 10.877 35.8696 12.1291V12.1382C35.8696 13.3859 35.0087 14.2401 33.7655 14.2401H32.3906V16.4215H31.4068V10.0362ZM32.3906 10.8724V13.408H33.5196C34.3762 13.408 34.8682 12.9434 34.8682 12.1425V12.1338C34.8682 11.337 34.3765 10.8726 33.5196 10.8726H32.3906V10.8724Z" fill="#121212"/>
<path d="M36.7776 11.7678H37.7265V12.5643H37.7485C37.8977 12.0201 38.2843 11.6793 38.8115 11.6793C38.9475 11.6793 39.066 11.7014 39.1409 11.7148V12.6042C39.0663 12.5733 38.8992 12.5512 38.7149 12.5512C38.1042 12.5512 37.7265 12.9541 37.7265 13.6486V16.4232H36.7776V11.7678Z" fill="#121212"/>
<path d="M39.6128 14.113V14.1086C39.6128 12.6529 40.4474 11.6793 41.7433 11.6793C43.0391 11.6793 43.8341 12.6176 43.8341 14.0157V14.3388H40.5616C40.579 15.2195 41.0579 15.7328 41.8133 15.7328C42.3755 15.7328 42.7488 15.4406 42.8677 15.091L42.881 15.0557H43.7812L43.7726 15.1044C43.6233 15.8435 42.9116 16.5161 41.7913 16.5161C40.4341 16.5159 39.6128 15.5822 39.6128 14.113ZM40.5744 13.6617H42.894C42.8148 12.8565 42.3668 12.4626 41.7473 12.4626C41.1325 12.4624 40.658 12.8828 40.5744 13.6617Z" fill="#121212"/>
<path d="M44.7911 11.7678H45.74V12.4892H45.7619C45.9597 12.0024 46.4294 11.6793 47.0356 11.6793C47.6727 11.6793 48.138 12.0111 48.3228 12.5955H48.3447C48.5819 12.0291 49.1264 11.6793 49.7855 11.6793C50.6991 11.6793 51.2965 12.2899 51.2965 13.2236V16.4229H50.3434V13.4537C50.3434 12.8475 50.0224 12.4979 49.4602 12.4979C48.898 12.4979 48.507 12.9227 48.507 13.5114V16.4232H47.5755V13.3829C47.5755 12.8431 47.2374 12.4979 46.7013 12.4979C46.1391 12.4979 45.7394 12.9448 45.7394 13.5467V16.4229H44.7906V11.7678H44.7911Z" fill="#121212"/>
<path d="M52.3947 10.5024C52.3947 10.1971 52.6405 9.94915 52.948 9.94915C53.26 9.94915 53.5015 10.1971 53.5015 10.5024C53.5015 10.8033 53.26 11.0509 52.948 11.0509C52.6405 11.0509 52.3947 10.8033 52.3947 10.5024ZM52.4737 11.7679H53.4225V16.423H52.4737V11.7679Z" fill="#121212"/>
<path d="M54.6053 14.7842V11.7664H55.5541V14.5983C55.5541 15.3019 55.8792 15.6914 56.538 15.6914C57.2057 15.6914 57.6363 15.209 57.6363 14.4835V11.7666H58.5895V16.4217H57.6363V15.7226H57.6143C57.3726 16.1916 56.9026 16.5147 56.1999 16.5147C55.1851 16.5144 54.6053 15.8551 54.6053 14.7842Z" fill="#121212"/>
<path d="M59.7038 11.7678H60.6526V12.4892H60.6746C60.8724 12.0024 61.3421 11.6793 61.9482 11.6793C62.5853 11.6793 63.0506 12.0111 63.2354 12.5955H63.2574C63.4945 12.0291 64.0391 11.6793 64.6982 11.6793C65.6117 11.6793 66.2092 12.2899 66.2092 13.2236V16.4229H65.256V13.4537C65.256 12.8475 64.935 12.4979 64.3728 12.4979C63.8106 12.4979 63.4197 12.9227 63.4197 13.5114V16.4232H62.4882V13.3829C62.4882 12.8431 62.1501 12.4979 61.614 12.4979C61.0518 12.4979 60.6521 12.9448 60.6521 13.5467V16.4229H59.7032V11.7678H59.7038Z" fill="#121212"/>
<path d="M31.4068 19.4764H33.7655C35.0087 19.4764 35.8696 20.3169 35.8696 21.5693V21.5781C35.8696 22.8258 35.0087 23.68 33.7655 23.68H32.3906V25.8615H31.4068V19.4764ZM32.3906 20.3128V22.8483H33.5196C34.3762 22.8483 34.8682 22.3836 34.8682 21.5827V21.574C34.8682 20.7772 34.3765 20.3128 33.5196 20.3128H32.3906Z" fill="#121212"/>
<path d="M36.3679 24.5364V24.5276C36.3679 23.7177 36.9916 23.2222 38.0854 23.1558L39.3416 23.0806V22.731C39.3416 22.2177 39.0122 21.9077 38.4235 21.9077C37.8746 21.9077 37.5359 22.169 37.457 22.5405L37.4483 22.5804H36.5521L36.5564 22.5317C36.6224 21.7306 37.3121 21.1156 38.45 21.1156C39.5788 21.1156 40.2948 21.7175 40.2948 22.6512V25.8595H39.3416V25.1248H39.3243C39.0562 25.6248 38.5203 25.9435 37.9096 25.9435C36.9873 25.9437 36.3679 25.3727 36.3679 24.5364ZM38.1689 25.1781C38.8364 25.1781 39.3416 24.7222 39.3416 24.116V23.7533L38.2126 23.824C37.6418 23.8593 37.3254 24.1116 37.3254 24.5055V24.5142C37.3257 24.9215 37.6594 25.1781 38.1689 25.1781Z" fill="#121212"/>
<path d="M41.3928 21.208H42.3416V22.0045H42.3636C42.5128 21.4603 42.8995 21.1195 43.4266 21.1195C43.5626 21.1195 43.6812 21.1416 43.756 21.155V22.0444C43.6814 22.0136 43.5143 21.9914 43.3301 21.9914C42.7193 21.9914 42.3416 22.394 42.3416 23.0888V25.8631H41.3928V21.208Z" fill="#121212"/>
<path d="M45.1504 24.6354V21.9669H44.4872V21.2059H45.1504V19.9932H46.1212V21.2059H46.9865V21.9669H46.1212V24.5777C46.1212 25.0511 46.332 25.1927 46.7317 25.1927C46.8329 25.1927 46.9165 25.184 46.9865 25.1752V25.9143C46.8766 25.9318 46.6967 25.9542 46.5032 25.9542C45.5897 25.954 45.1504 25.5645 45.1504 24.6354Z" fill="#121212"/>
<path d="M47.9939 21.208H48.9428V21.9113H48.9647C49.2062 21.4382 49.6808 21.1195 50.3792 21.1195C51.3937 21.1195 51.9781 21.7788 51.9781 22.8497V25.8631H51.025V23.0312C51.025 22.3317 50.6999 21.9381 50.0408 21.9381C49.3731 21.9381 48.9428 22.4249 48.9428 23.1506V25.8634H47.9939V21.208Z" fill="#121212"/>
<path d="M52.9085 23.5496V23.545C52.9085 22.0892 53.7431 21.1156 55.039 21.1156C56.3349 21.1156 57.1299 22.054 57.1299 23.452V23.7751H53.8574C53.8747 24.6558 54.3536 25.1694 55.109 25.1694C55.6712 25.1694 56.0446 24.8772 56.1634 24.5276L56.1767 24.4921H57.077L57.0683 24.5407C56.9191 25.2798 56.2074 25.9525 55.087 25.9525C53.7301 25.9525 52.9085 25.0188 52.9085 23.5496ZM53.8704 23.0984H56.19C56.1108 22.2931 55.6628 21.899 55.0434 21.899C54.4285 21.899 53.954 22.3194 53.8704 23.0984Z" fill="#121212"/>
<path d="M58.1342 21.208H59.0831V22.0045H59.105C59.2543 21.4603 59.6409 21.1195 60.1681 21.1195C60.304 21.1195 60.4226 21.1416 60.4975 21.155V22.0444C60.4229 22.0136 60.2557 21.9914 60.0715 21.9914C59.4607 21.9914 59.0831 22.394 59.0831 23.0888V25.8631H58.1342V21.208Z" fill="#121212"/>
</svg>
