<svg width="15" height="16" viewBox="0 0 15 16" fill="none" xmlns="http://www.w3.org/2000/svg">
<path d="M2.41887 16C1.61807 16 1.01472 15.7996 0.608832 15.3987C0.202944 15.0032 0 14.4127 0 13.6272V5.11935C0 4.33384 0.202944 3.74336 0.608832 3.34789C1.01472 2.94701 1.61807 2.74657 2.41887 2.74657H11.8969C12.6922 2.74657 13.2928 2.94701 13.6987 3.34789C14.1101 3.74877 14.3158 4.33926 14.3158 5.11935V13.6272C14.3158 14.4127 14.1183 15.0032 13.7234 15.3987C13.334 15.7996 12.7773 16 12.0532 16H2.41887ZM2.44356 15.0005H12.0286C12.407 15.0005 12.7142 14.8813 12.95 14.643C13.1859 14.4046 13.3038 14.0498 13.3038 13.5785V5.16811C13.3038 4.70222 13.1777 4.35009 12.9253 4.11173C12.6785 3.86795 12.3275 3.74606 11.8722 3.74606H2.44356C1.97733 3.74606 1.62081 3.86795 1.37399 4.11173C1.13265 4.35009 1.01198 4.70222 1.01198 5.16811V13.5785C1.01198 14.0498 1.13265 14.4046 1.37399 14.643C1.62081 14.8813 1.97733 15.0005 2.44356 15.0005ZM4.0726 3.06348C4.0726 2.48925 4.20698 1.9719 4.47574 1.51143C4.74999 1.05096 5.12023 0.685289 5.58645 0.414424C6.05267 0.138141 6.57649 0 7.15789 0C7.7393 0 8.26312 0.138141 8.72934 0.414424C9.19556 0.685289 9.56306 1.05096 9.83182 1.51143C10.1061 1.9719 10.2432 2.48925 10.2432 3.06348H9.23122C9.23122 2.65719 9.14071 2.29694 8.95971 1.98273C8.78419 1.66311 8.54011 1.41121 8.22747 1.22702C7.91482 1.04283 7.5583 0.950736 7.15789 0.950736C6.75749 0.950736 6.40097 1.04283 6.08832 1.22702C5.77568 1.41121 5.52886 1.66311 5.34785 1.98273C5.17233 2.29694 5.08457 2.65719 5.08457 3.06348H4.0726Z" fill="black"/>
</svg>
