<svg width="68" height="68" viewBox="0 0 68 68" fill="none" xmlns="http://www.w3.org/2000/svg">
<path fillRule="evenodd" clipRule="evenodd" d="M28.9587 17.9106C29.6757 17.1044 30.5708 16.4654 31.5774 16.0411C32.584 15.6169 33.6761 15.4182 34.7727 15.46C37.2784 15.46 39.236 16.3719 40.5867 17.9106C41.8983 19.4304 42.5443 21.4631 42.603 23.6098V28.7581H48.4757C49.0238 28.7581 49.4545 29.176 49.4545 29.708V52.5047C49.4545 52.7566 49.3514 52.9982 49.1678 53.1763C48.9843 53.3545 48.7353 53.4545 48.4757 53.4545H21.0697C20.8101 53.4545 20.5611 53.3545 20.3776 53.1763C20.194 52.9982 20.0909 52.7566 20.0909 52.5047V29.708C20.0909 29.176 20.5215 28.7581 21.0697 28.7581H26.9424V23.6288C26.9424 21.5391 27.6471 19.5444 28.9587 17.9106ZM40.6454 26.6684V28.7391H28.9V23.6668C28.9587 21.7861 29.5068 20.2093 30.466 19.1075C31.0008 18.5177 31.6658 18.0526 32.4114 17.7467C33.157 17.4408 33.9642 17.302 34.7727 17.3407C36.7499 17.3407 38.1593 18.0436 39.0794 19.1075C40.0386 20.2093 40.5867 21.7861 40.6454 23.6668V26.6684ZM22.0485 30.6388V51.5358H47.4969V30.6388H22.0485V30.6388ZM34.7923 35.3881C34.1408 35.3933 33.5095 35.6087 32.998 36.0003C32.4864 36.3919 32.1236 36.9375 31.9666 37.5511C31.8096 38.1648 31.8674 38.8117 32.1309 39.39C32.3944 39.9683 32.8486 40.4451 33.422 40.7454V45.4947C33.422 45.8373 33.5622 46.1659 33.8119 46.4081C34.0615 46.6504 34.4001 46.7865 34.7531 46.7865C35.1062 46.7865 35.4448 46.6504 35.6944 46.4081C35.944 46.1659 36.0843 45.8373 36.0843 45.4947V40.8024C36.674 40.5145 37.1466 40.0421 37.4257 39.4615C37.7048 38.8809 37.7742 38.226 37.6226 37.6024C37.471 36.9789 37.1073 36.4231 36.5903 36.0248C36.0732 35.6265 35.4329 35.4089 34.7727 35.4071L34.7923 35.3881Z" fill="#336E7B"/>
</svg>
