<svg width="20" height="20" viewBox="0 0 20 20" fill="none" xmlns="http://www.w3.org/2000/svg">
<path fill-rule="evenodd" clip-rule="evenodd" d="M11.3686 11.69C10.7896 12.1945 10.0328 12.5 9.20454 12.5C7.38451 12.5 5.90909 11.0246 5.90909 9.20455C5.90909 7.38452 7.38451 5.90909 9.20454 5.90909C11.0246 5.90909 12.5 7.38452 12.5 9.20455C12.5 10.0328 12.1945 10.7896 11.69 11.3686L14.4789 14.1575L14.1575 14.4789L11.3686 11.69ZM12.0455 9.20455C12.0455 10.7735 10.7735 12.0455 9.20454 12.0455C7.63555 12.0455 6.36363 10.7735 6.36363 9.20455C6.36363 7.63556 7.63555 6.36364 9.20454 6.36364C10.7735 6.36364 12.0455 7.63556 12.0455 9.20455Z" fill="black"/>
</svg>
