<?xml version="1.0" encoding="UTF-8"?><svg id="Layer_1" xmlns="http://www.w3.org/2000/svg" viewBox="0 0 38.65 38.65"><defs><style>.cls-1{fill:#c81ca9;}</style></defs><path class="cls-1" d="M25.92,28.59s0,.03,0,.04h-10.85s0,.24,0,.24c-.12,2.34-1.96,4.21-4.28,4.4-.01,0-.03,0-.04,0-.11,0-.22.01-.33.01h-.24c-2.46-.13-4.41-2.16-4.41-4.65h0s-5.43,0-5.43,0v-.77h0V5.37h22.48v4.85l14.95,4.49.55.17v13.76s-3.1,0-3.1,0h0s0,.24,0,.24c-.12,2.46-2.16,4.41-4.65,4.41h-.24c-2.46-.13-4.41-2.16-4.41-4.65,0-.01,0-.03,0-.04ZM30.57,25.53c-1.71,0-3.1,1.39-3.1,3.1,0,1.71,1.39,3.1,3.1,3.1,1.71,0,3.1-1.39,3.1-3.1,0-1.71-1.39-3.1-3.1-3.1ZM10.41,25.53c-1.71,0-3.1,1.39-3.1,3.1,0,1.71,1.39,3.1,3.1,3.1,1.71,0,3.1-1.39,3.1-3.1,0-1.71-1.39-3.1-3.1-3.1ZM22.82,27.08h3.37c.64-1.81,2.36-3.1,4.39-3.1,2.02,0,3.75,1.29,4.39,3.1h1.82v-9.3h0v-1.75l-13.96-4.19v15.24ZM1.88,27.08h4.14c.64-1.81,2.36-3.1,4.39-3.1,2.02,0,3.75,1.29,4.39,3.1h6.47V6.92H1.88v20.16ZM25.92,28.42c0,.06,0,.11,0,.17,0-.06,0-.11,0-.17Z"/></svg>