<?xml version="1.0" encoding="utf-8"?>
<!-- Generator: Adobe Illustrator 25.3.1, SVG Export Plug-In . SVG Version: 6.00 Build 0)  -->
<svg version="1.1" id="Artwork" xmlns="http://www.w3.org/2000/svg" xmlns:xlink="http://www.w3.org/1999/xlink" x="0px" y="0px"
	 width="293.363px" height="68.457px" viewBox="0 0 293.363 68.457" style="enable-background:new 0 0 293.363 68.457;"
	 xml:space="preserve">
<g>
	<g>
		<path d="M68.575,33.101l6.537-17.967h3.014l6.524,17.967h-2.926l-1.644-4.856h-6.923l-1.656,4.856H68.575z M76.593,18.11
			l-2.689,7.894h5.417l-2.677-7.894H76.593z"/>
		<path d="M90.533,33.362c-0.955,0-1.77-0.197-2.447-0.591s-1.191-0.954-1.544-1.681s-0.529-1.592-0.529-2.596v-8.492h2.689v7.969
			c0,0.988,0.232,1.748,0.697,2.279c0.464,0.531,1.162,0.797,2.092,0.797c0.63,0,1.178-0.141,1.644-0.424
			c0.464-0.282,0.826-0.678,1.083-1.189c0.257-0.51,0.386-1.106,0.386-1.787v-7.645h2.702v13.099h-2.702v-1.967h-0.062
			c-0.34,0.656-0.845,1.191-1.513,1.606C92.361,33.155,91.529,33.362,90.533,33.362z"/>
		<path d="M104.91,33.362c-1.295,0-2.258-0.292-2.889-0.877c-0.631-0.585-0.946-1.529-0.946-2.833v-7.508h-1.88v-2.142h1.88v-3.412
			h2.752v3.412h2.453v2.142h-2.453v7.346c0,0.664,0.147,1.119,0.442,1.363c0.294,0.245,0.724,0.367,1.289,0.367
			c0.141,0,0.272-0.006,0.392-0.019c0.121-0.012,0.23-0.022,0.33-0.031v2.08c-0.158,0.025-0.357,0.05-0.598,0.075
			S105.184,33.362,104.91,33.362z"/>
		<path d="M108.979,33.101V15.134h2.689v7.022h0.062c0.349-0.763,0.867-1.355,1.556-1.774s1.523-0.629,2.503-0.629
			c0.938,0,1.753,0.218,2.447,0.654c0.693,0.436,1.232,1.048,1.619,1.836c0.386,0.789,0.579,1.71,0.579,2.764v8.093h-2.689v-7.583
			c0-1.087-0.262-1.937-0.785-2.546c-0.523-0.61-1.257-0.916-2.204-0.916c-0.615,0-1.154,0.148-1.619,0.442s-0.826,0.702-1.083,1.22
			s-0.386,1.119-0.386,1.799v7.583H108.979z"/>
		<path d="M129.046,33.362c-1.253,0-2.345-0.275-3.274-0.828s-1.652-1.336-2.167-2.354c-0.515-1.017-0.772-2.227-0.772-3.629v-0.025
			c0-1.395,0.257-2.598,0.772-3.611s1.239-1.793,2.173-2.341c0.934-0.548,2.019-0.822,3.256-0.822c1.245,0,2.334,0.274,3.269,0.822
			s1.66,1.326,2.179,2.334c0.519,1.009,0.777,2.214,0.777,3.617v0.025c0,1.403-0.257,2.615-0.771,3.636s-1.237,1.806-2.167,2.354
			C131.391,33.089,130.299,33.362,129.046,33.362z M129.059,31.109c0.706,0,1.315-0.178,1.83-0.536
			c0.515-0.356,0.913-0.875,1.195-1.556s0.423-1.502,0.423-2.465v-0.025c0-0.955-0.143-1.768-0.429-2.44
			c-0.287-0.672-0.689-1.187-1.208-1.544c-0.519-0.357-1.131-0.536-1.836-0.536c-0.689,0-1.293,0.179-1.812,0.536
			c-0.519,0.357-0.921,0.872-1.208,1.544c-0.286,0.672-0.43,1.486-0.43,2.44v0.025c0,0.963,0.144,1.785,0.43,2.465
			c0.287,0.681,0.691,1.2,1.214,1.556C127.751,30.931,128.361,31.109,129.059,31.109z"/>
		<path d="M137.746,33.101V20.002h2.689v2.241h0.062c0.216-0.764,0.585-1.37,1.108-1.818c0.522-0.448,1.158-0.672,1.905-0.672
			c0.19,0,0.367,0.012,0.529,0.038c0.161,0.024,0.296,0.045,0.404,0.062v2.502c-0.108-0.041-0.27-0.076-0.485-0.105
			s-0.457-0.044-0.723-0.044c-0.863,0-1.546,0.27-2.048,0.81c-0.503,0.54-0.754,1.299-0.754,2.278v7.807H137.746z"/>
		<path d="M147.979,17.985c-0.291,0-0.554-0.07-0.791-0.212c-0.236-0.141-0.425-0.328-0.566-0.56
			c-0.141-0.232-0.212-0.49-0.212-0.772c0-0.291,0.071-0.552,0.212-0.784c0.142-0.232,0.33-0.419,0.566-0.561
			c0.237-0.141,0.5-0.212,0.791-0.212c0.299,0,0.566,0.071,0.803,0.212c0.237,0.141,0.424,0.328,0.561,0.561
			s0.206,0.494,0.206,0.784c0,0.282-0.069,0.54-0.206,0.772s-0.323,0.419-0.561,0.56C148.545,17.915,148.277,17.985,147.979,17.985z
			 M146.634,33.101V20.002h2.689v13.099H146.634z"/>
		<path d="M152.183,33.101V31.37l6.998-9.176v-0.05h-6.948v-2.142h10.023v1.843l-6.823,9.077v0.05h6.898v2.129H152.183z"/>
		<path d="M170.168,33.362c-1.278,0-2.38-0.275-3.306-0.828s-1.635-1.334-2.129-2.347s-0.741-2.208-0.741-3.586v-0.013
			c0-1.021,0.142-1.95,0.424-2.789c0.282-0.838,0.688-1.56,1.22-2.166s1.167-1.071,1.905-1.395c0.739-0.324,1.569-0.486,2.49-0.486
			c1.229,0,2.285,0.274,3.169,0.822s1.564,1.316,2.042,2.304s0.716,2.137,0.716,3.449v0.909h-9.276
			c0.025,1.237,0.355,2.2,0.99,2.889c0.635,0.689,1.488,1.034,2.559,1.034c0.531,0,1-0.083,1.407-0.249
			c0.406-0.166,0.745-0.386,1.015-0.66c0.27-0.274,0.459-0.573,0.566-0.896l0.037-0.1h2.553l-0.024,0.137
			c-0.108,0.523-0.312,1.021-0.61,1.494s-0.687,0.896-1.164,1.27s-1.038,0.668-1.681,0.884
			C171.686,33.254,170.965,33.362,170.168,33.362z M170.044,21.957c-0.581,0-1.108,0.129-1.581,0.386
			c-0.474,0.257-0.861,0.637-1.164,1.139c-0.304,0.502-0.496,1.119-0.579,1.849h6.574c-0.108-1.137-0.457-1.984-1.046-2.54
			C171.658,22.235,170.924,21.957,170.044,21.957z"/>
		<path d="M183.314,33.362c-1.112,0-2.079-0.278-2.901-0.834c-0.821-0.556-1.457-1.345-1.905-2.366s-0.672-2.225-0.672-3.611v-0.013
			c0-1.395,0.226-2.598,0.679-3.61c0.452-1.013,1.087-1.795,1.905-2.347c0.817-0.552,1.773-0.828,2.869-0.828
			c0.93,0,1.754,0.22,2.472,0.66c0.718,0.44,1.272,1.046,1.662,1.818h0.05v-7.098h2.702v17.967h-2.702v-2.216h-0.05
			c-0.39,0.764-0.938,1.368-1.644,1.812C185.073,33.14,184.251,33.362,183.314,33.362z M184.024,31.047
			c0.68,0,1.28-0.185,1.799-0.554s0.926-0.892,1.22-1.569c0.295-0.677,0.442-1.467,0.442-2.372v-0.013
			c0-0.904-0.147-1.693-0.442-2.365c-0.294-0.673-0.703-1.193-1.226-1.563c-0.523-0.369-1.121-0.554-1.793-0.554
			c-0.706,0-1.316,0.181-1.831,0.542c-0.515,0.361-0.911,0.878-1.188,1.55c-0.278,0.673-0.417,1.47-0.417,2.391v0.013
			c0,0.93,0.139,1.73,0.417,2.403c0.277,0.672,0.674,1.189,1.188,1.55C182.707,30.866,183.317,31.047,184.024,31.047z"/>
	</g>
	<g>
		<path d="M69.903,63.101V45.135h11.405v2.403h-8.616v5.242h8.155v2.341h-8.155v5.578h8.616v2.403H69.903z"/>
		<path d="M88.41,63.363c-1.112,0-2.079-0.278-2.901-0.835c-0.821-0.556-1.457-1.345-1.905-2.365
			c-0.448-1.021-0.672-2.225-0.672-3.611V56.54c0-1.395,0.226-2.598,0.679-3.611c0.452-1.012,1.087-1.794,1.905-2.347
			s1.774-0.828,2.87-0.828c0.93,0,1.753,0.22,2.472,0.66c0.718,0.44,1.272,1.046,1.662,1.817h0.05v-7.097h2.702v17.967h-2.702
			v-2.217h-0.05c-0.39,0.764-0.938,1.368-1.644,1.812C90.17,63.141,89.348,63.363,88.41,63.363z M89.12,61.047
			c0.68,0,1.28-0.185,1.799-0.554s0.926-0.893,1.22-1.569s0.442-1.467,0.442-2.372V56.54c0-0.905-0.147-1.693-0.442-2.366
			c-0.294-0.672-0.704-1.193-1.226-1.562c-0.523-0.369-1.121-0.554-1.793-0.554c-0.706,0-1.316,0.18-1.831,0.542
			c-0.515,0.361-0.911,0.877-1.189,1.55c-0.278,0.672-0.417,1.469-0.417,2.391v0.012c0,0.929,0.139,1.731,0.417,2.403
			c0.278,0.673,0.674,1.189,1.189,1.55C87.804,60.866,88.414,61.047,89.12,61.047z"/>
		<path d="M102.735,63.363c-0.955,0-1.771-0.198-2.447-0.592c-0.676-0.395-1.191-0.954-1.543-1.681
			c-0.353-0.727-0.529-1.592-0.529-2.597v-8.491h2.689v7.969c0,0.987,0.232,1.747,0.697,2.278s1.162,0.797,2.092,0.797
			c0.631,0,1.179-0.141,1.645-0.423c0.464-0.282,0.825-0.679,1.083-1.189c0.257-0.511,0.386-1.106,0.386-1.787v-7.645h2.702v13.099
			h-2.702v-1.968h-0.062c-0.34,0.656-0.845,1.191-1.513,1.606S103.732,63.363,102.735,63.363z"/>
		<path d="M118.043,63.363c-1.27,0-2.37-0.278-3.3-0.835c-0.93-0.556-1.647-1.345-2.153-2.365c-0.507-1.021-0.76-2.229-0.76-3.623
			v-0.013c0-1.038,0.146-1.974,0.436-2.808c0.291-0.834,0.708-1.546,1.252-2.136c0.543-0.589,1.195-1.042,1.954-1.357
			c0.76-0.315,1.604-0.473,2.534-0.473c0.847,0,1.604,0.125,2.272,0.374s1.243,0.589,1.725,1.021s0.86,0.926,1.139,1.481
			c0.278,0.557,0.446,1.142,0.505,1.756l0.013,0.087h-2.565l-0.024-0.1c-0.092-0.431-0.267-0.826-0.523-1.183
			c-0.258-0.357-0.594-0.643-1.009-0.859c-0.415-0.215-0.917-0.323-1.507-0.323c-0.697,0-1.303,0.185-1.817,0.554
			c-0.515,0.37-0.915,0.893-1.201,1.569c-0.287,0.677-0.43,1.484-0.43,2.422v0.012c0,0.955,0.143,1.771,0.43,2.446
			c0.286,0.677,0.69,1.195,1.214,1.557c0.522,0.361,1.129,0.542,1.817,0.542c0.83,0,1.505-0.22,2.023-0.66
			c0.519-0.439,0.857-1.013,1.015-1.718l0.013-0.1h2.59l-0.013,0.087c-0.074,0.655-0.26,1.266-0.554,1.83
			c-0.295,0.564-0.689,1.057-1.183,1.476c-0.494,0.419-1.069,0.747-1.725,0.983C119.554,63.244,118.832,63.363,118.043,63.363z"/>
		<path d="M129.691,63.338c-0.871,0-1.636-0.166-2.291-0.498c-0.656-0.332-1.166-0.797-1.531-1.395s-0.548-1.286-0.548-2.066v-0.025
			c0-1.137,0.423-2.042,1.27-2.714c0.847-0.673,2.046-1.054,3.599-1.146l3.561-0.212v-0.983c0-0.723-0.224-1.289-0.672-1.7
			c-0.448-0.411-1.092-0.617-1.93-0.617c-0.78,0-1.403,0.167-1.868,0.498c-0.465,0.333-0.755,0.76-0.871,1.283l-0.025,0.112h-2.54
			l0.013-0.137c0.066-0.755,0.319-1.432,0.76-2.029c0.439-0.598,1.05-1.073,1.83-1.426c0.78-0.353,1.706-0.529,2.776-0.529
			c1.071,0,1.996,0.179,2.777,0.535c0.779,0.357,1.384,0.857,1.812,1.5c0.427,0.644,0.641,1.405,0.641,2.285v9.027h-2.702v-2.067
			h-0.049c-0.383,0.706-0.931,1.267-1.645,1.682C131.343,63.13,130.555,63.338,129.691,63.338z M128.035,59.316
			c0,0.572,0.218,1.027,0.654,1.363c0.436,0.336,1.015,0.504,1.736,0.504c0.631,0,1.197-0.131,1.7-0.392
			c0.502-0.262,0.898-0.618,1.188-1.071c0.291-0.452,0.436-0.961,0.436-1.525v-1.021l-3.199,0.199
			c-0.806,0.05-1.426,0.242-1.861,0.579c-0.437,0.336-0.654,0.782-0.654,1.338V59.316z"/>
		<path d="M143.904,63.363c-1.295,0-2.258-0.293-2.889-0.878c-0.631-0.586-0.946-1.529-0.946-2.833v-7.508h-1.88v-2.142h1.88v-3.412
			h2.752v3.412h2.453v2.142h-2.453v7.346c0,0.664,0.147,1.119,0.441,1.363c0.295,0.245,0.725,0.368,1.289,0.368
			c0.141,0,0.271-0.007,0.393-0.02c0.12-0.012,0.23-0.022,0.33-0.03v2.079c-0.158,0.024-0.357,0.05-0.598,0.074
			C144.436,63.35,144.179,63.363,143.904,63.363z"/>
		<path d="M149.202,47.986c-0.291,0-0.554-0.07-0.791-0.211c-0.236-0.141-0.425-0.328-0.566-0.561
			c-0.141-0.232-0.211-0.49-0.211-0.772c0-0.291,0.07-0.552,0.211-0.785c0.142-0.232,0.33-0.419,0.566-0.56
			c0.237-0.141,0.5-0.211,0.791-0.211c0.299,0,0.566,0.07,0.803,0.211c0.237,0.141,0.424,0.328,0.561,0.56
			c0.137,0.233,0.205,0.494,0.205,0.785c0,0.282-0.068,0.54-0.205,0.772s-0.323,0.419-0.561,0.561
			C149.769,47.915,149.501,47.986,149.202,47.986z M147.858,63.101V50.003h2.689v13.099H147.858z"/>
		<path d="M159.206,63.363c-1.253,0-2.345-0.276-3.274-0.828c-0.93-0.553-1.652-1.337-2.166-2.354
			c-0.516-1.017-0.772-2.227-0.772-3.629v-0.025c0-1.395,0.257-2.598,0.772-3.611c0.514-1.013,1.238-1.793,2.172-2.341
			c0.935-0.548,2.02-0.822,3.256-0.822c1.246,0,2.335,0.274,3.269,0.822c0.935,0.548,1.66,1.326,2.18,2.334
			c0.519,1.009,0.778,2.214,0.778,3.617v0.025c0,1.403-0.258,2.615-0.772,3.635c-0.515,1.021-1.237,1.806-2.167,2.354
			S160.46,63.363,159.206,63.363z M159.219,61.109c0.705,0,1.315-0.179,1.83-0.535c0.515-0.357,0.913-0.876,1.195-1.557
			s0.424-1.503,0.424-2.465v-0.025c0-0.955-0.144-1.768-0.43-2.44s-0.689-1.187-1.208-1.544s-1.131-0.535-1.837-0.535
			c-0.688,0-1.293,0.178-1.812,0.535s-0.921,0.872-1.207,1.544c-0.287,0.672-0.43,1.486-0.43,2.44v0.025
			c0,0.962,0.143,1.785,0.43,2.465c0.286,0.681,0.69,1.199,1.214,1.557C157.911,60.931,158.522,61.109,159.219,61.109z"/>
		<path d="M167.753,63.101V50.003h2.689v1.979h0.062c0.34-0.664,0.847-1.201,1.52-1.612c0.672-0.411,1.502-0.616,2.49-0.616
			c0.962,0,1.78,0.197,2.452,0.591c0.673,0.395,1.188,0.955,1.544,1.681c0.357,0.727,0.535,1.592,0.535,2.596v8.479h-2.701v-7.969
			c0-0.988-0.23-1.747-0.691-2.278s-1.16-0.797-2.098-0.797c-0.631,0-1.179,0.143-1.644,0.429c-0.465,0.287-0.826,0.685-1.083,1.195
			c-0.258,0.511-0.387,1.106-0.387,1.787v7.633H167.753z"/>
		<path d="M192.744,63.4c-1.345,0-2.521-0.204-3.53-0.61s-1.808-0.99-2.396-1.749c-0.59-0.76-0.922-1.667-0.996-2.721l-0.013-0.187
			h2.714l0.025,0.161c0.083,0.548,0.313,1.023,0.691,1.426c0.377,0.403,0.875,0.714,1.494,0.934c0.618,0.221,1.326,0.33,2.123,0.33
			c0.805,0,1.5-0.113,2.085-0.342s1.038-0.55,1.357-0.965s0.479-0.901,0.479-1.457v-0.013c0-0.722-0.264-1.296-0.791-1.724
			s-1.384-0.77-2.571-1.027l-1.954-0.411c-1.761-0.374-3.072-0.973-3.936-1.799s-1.295-1.903-1.295-3.231v-0.013
			c0-0.764,0.16-1.463,0.479-2.098c0.319-0.635,0.772-1.181,1.357-1.637s1.274-0.81,2.067-1.059
			c0.792-0.249,1.662-0.373,2.608-0.373c0.938,0,1.795,0.12,2.571,0.361c0.775,0.241,1.448,0.585,2.017,1.034s1.017,0.981,1.345,1.6
			c0.328,0.619,0.517,1.306,0.566,2.061l0.013,0.212h-2.714l-0.013-0.174c-0.125-0.838-0.527-1.494-1.208-1.967
			s-1.553-0.71-2.615-0.71c-0.738,0-1.382,0.112-1.93,0.336s-0.971,0.534-1.27,0.928s-0.448,0.853-0.448,1.375v0.013
			c0,0.672,0.263,1.222,0.79,1.65s1.352,0.762,2.472,1.002l1.968,0.411c1.236,0.257,2.245,0.606,3.025,1.046
			s1.355,0.988,1.725,1.644s0.554,1.449,0.554,2.378v0.012c0,1.088-0.273,2.034-0.821,2.839c-0.548,0.806-1.335,1.426-2.359,1.861
			C195.386,63.182,194.163,63.4,192.744,63.4z"/>
		<path d="M201.516,67.459V50.003h2.689v2.254h0.062c0.39-0.78,0.938-1.393,1.644-1.837c0.705-0.444,1.523-0.666,2.453-0.666
			c1.112,0,2.079,0.276,2.901,0.828c0.821,0.552,1.456,1.336,1.904,2.353c0.448,1.017,0.673,2.223,0.673,3.617v0.012
			c0,1.387-0.227,2.59-0.679,3.611c-0.453,1.021-1.086,1.807-1.898,2.359c-0.814,0.552-1.769,0.828-2.864,0.828
			c-0.93,0-1.754-0.223-2.472-0.667c-0.718-0.443-1.272-1.043-1.662-1.799h-0.062v6.562H201.516z M207.667,61.047
			c0.705,0,1.315-0.183,1.83-0.548s0.911-0.882,1.189-1.55c0.277-0.668,0.417-1.463,0.417-2.385v-0.012
			c0-0.93-0.142-1.731-0.424-2.403c-0.282-0.673-0.679-1.189-1.188-1.55c-0.511-0.361-1.119-0.542-1.824-0.542
			c-0.681,0-1.282,0.185-1.806,0.554c-0.523,0.37-0.932,0.891-1.227,1.562c-0.295,0.673-0.441,1.465-0.441,2.378v0.012
			c0,0.905,0.148,1.693,0.447,2.366c0.299,0.672,0.71,1.193,1.233,1.562C206.397,60.862,206.994,61.047,207.667,61.047z"/>
		<path d="M221.768,63.363c-1.278,0-2.38-0.276-3.306-0.828c-0.926-0.553-1.636-1.335-2.129-2.348
			c-0.494-1.013-0.741-2.208-0.741-3.585V56.59c0-1.021,0.141-1.951,0.423-2.789s0.689-1.561,1.221-2.167
			c0.531-0.605,1.166-1.07,1.905-1.395c0.738-0.323,1.568-0.485,2.49-0.485c1.229,0,2.284,0.274,3.169,0.822
			c0.884,0.548,1.564,1.316,2.042,2.303c0.477,0.988,0.716,2.138,0.716,3.449v0.909h-9.276c0.024,1.236,0.354,2.199,0.99,2.889
			c0.635,0.688,1.487,1.033,2.559,1.033c0.531,0,1-0.083,1.407-0.249c0.406-0.166,0.744-0.386,1.015-0.66
			c0.27-0.273,0.458-0.572,0.566-0.896l0.037-0.1h2.553l-0.025,0.137c-0.107,0.523-0.312,1.021-0.61,1.494
			c-0.299,0.474-0.687,0.896-1.164,1.271c-0.478,0.373-1.037,0.668-1.681,0.884S222.565,63.363,221.768,63.363z M221.644,51.958
			c-0.582,0-1.108,0.128-1.582,0.386c-0.473,0.257-0.861,0.637-1.164,1.139c-0.303,0.502-0.496,1.119-0.579,1.849h6.574
			c-0.107-1.137-0.456-1.984-1.046-2.54C223.258,52.236,222.523,51.958,221.644,51.958z"/>
		<path d="M235.52,63.363c-1.27,0-2.37-0.278-3.3-0.835c-0.93-0.556-1.647-1.345-2.153-2.365c-0.507-1.021-0.76-2.229-0.76-3.623
			v-0.013c0-1.038,0.146-1.974,0.436-2.808c0.291-0.834,0.708-1.546,1.252-2.136c0.543-0.589,1.195-1.042,1.954-1.357
			c0.76-0.315,1.604-0.473,2.534-0.473c0.847,0,1.604,0.125,2.272,0.374s1.243,0.589,1.725,1.021s0.86,0.926,1.139,1.481
			c0.278,0.557,0.446,1.142,0.505,1.756l0.013,0.087h-2.565l-0.024-0.1c-0.092-0.431-0.267-0.826-0.523-1.183
			c-0.258-0.357-0.594-0.643-1.009-0.859c-0.415-0.215-0.917-0.323-1.507-0.323c-0.697,0-1.303,0.185-1.817,0.554
			c-0.515,0.37-0.915,0.893-1.201,1.569c-0.287,0.677-0.43,1.484-0.43,2.422v0.012c0,0.955,0.143,1.771,0.43,2.446
			c0.286,0.677,0.69,1.195,1.214,1.557c0.522,0.361,1.129,0.542,1.817,0.542c0.83,0,1.505-0.22,2.023-0.66
			c0.519-0.439,0.857-1.013,1.015-1.718l0.013-0.1h2.59l-0.013,0.087c-0.074,0.655-0.26,1.266-0.554,1.83
			c-0.295,0.564-0.689,1.057-1.183,1.476c-0.494,0.419-1.069,0.747-1.725,0.983C237.03,63.244,236.309,63.363,235.52,63.363z"/>
		<path d="M244.776,47.986c-0.291,0-0.554-0.07-0.791-0.211c-0.236-0.141-0.425-0.328-0.566-0.561
			c-0.141-0.232-0.211-0.49-0.211-0.772c0-0.291,0.07-0.552,0.211-0.785c0.142-0.232,0.33-0.419,0.566-0.56
			c0.237-0.141,0.5-0.211,0.791-0.211c0.299,0,0.566,0.07,0.803,0.211c0.237,0.141,0.424,0.328,0.561,0.56
			c0.137,0.233,0.205,0.494,0.205,0.785c0,0.282-0.068,0.54-0.205,0.772c-0.137,0.232-0.323,0.419-0.561,0.561
			C245.343,47.915,245.075,47.986,244.776,47.986z M243.432,63.101V50.003h2.689v13.099H243.432z"/>
		<path d="M253,63.338c-0.871,0-1.636-0.166-2.291-0.498c-0.656-0.332-1.166-0.797-1.531-1.395s-0.548-1.286-0.548-2.066v-0.025
			c0-1.137,0.423-2.042,1.27-2.714c0.847-0.673,2.046-1.054,3.599-1.146l3.561-0.212v-0.983c0-0.723-0.224-1.289-0.672-1.7
			c-0.448-0.411-1.092-0.617-1.93-0.617c-0.78,0-1.403,0.167-1.868,0.498c-0.465,0.333-0.755,0.76-0.871,1.283l-0.025,0.112h-2.54
			l0.013-0.137c0.066-0.755,0.319-1.432,0.76-2.029c0.439-0.598,1.05-1.073,1.83-1.426s1.706-0.529,2.776-0.529
			c1.071,0,1.996,0.179,2.777,0.535c0.779,0.357,1.384,0.857,1.812,1.5c0.427,0.644,0.641,1.405,0.641,2.285v9.027h-2.702v-2.067
			h-0.049c-0.383,0.706-0.931,1.267-1.645,1.682C254.651,63.13,253.863,63.338,253,63.338z M251.344,59.316
			c0,0.572,0.218,1.027,0.654,1.363c0.436,0.336,1.015,0.504,1.736,0.504c0.631,0,1.197-0.131,1.7-0.392
			c0.502-0.262,0.898-0.618,1.188-1.071c0.291-0.452,0.436-0.961,0.436-1.525v-1.021l-3.199,0.199
			c-0.806,0.05-1.426,0.242-1.861,0.579c-0.437,0.336-0.654,0.782-0.654,1.338V59.316z"/>
		<path d="M262.718,63.101V45.135h2.689v17.967H262.718z"/>
		<path d="M269.884,47.986c-0.291,0-0.554-0.07-0.791-0.211c-0.236-0.141-0.425-0.328-0.566-0.561
			c-0.141-0.232-0.211-0.49-0.211-0.772c0-0.291,0.07-0.552,0.211-0.785c0.142-0.232,0.33-0.419,0.566-0.56
			c0.237-0.141,0.5-0.211,0.791-0.211c0.299,0,0.566,0.07,0.803,0.211c0.237,0.141,0.424,0.328,0.561,0.56
			c0.137,0.233,0.205,0.494,0.205,0.785c0,0.282-0.068,0.54-0.205,0.772s-0.323,0.419-0.561,0.561
			C270.45,47.915,270.183,47.986,269.884,47.986z M268.539,63.101V50.003h2.689v13.099H268.539z"/>
		<path d="M278.86,63.363c-1.088,0-2.023-0.169-2.808-0.505c-0.785-0.336-1.401-0.805-1.85-1.407
			c-0.448-0.602-0.718-1.301-0.81-2.098l-0.012-0.112h2.664l0.025,0.125c0.124,0.605,0.415,1.077,0.871,1.413
			c0.457,0.336,1.1,0.504,1.93,0.504c0.813,0,1.449-0.155,1.905-0.467c0.457-0.312,0.685-0.732,0.685-1.264V59.54
			c0-0.423-0.137-0.766-0.41-1.027c-0.274-0.261-0.764-0.475-1.47-0.641l-2.142-0.485c-2.481-0.573-3.723-1.797-3.723-3.673v-0.012
			c0-0.78,0.212-1.467,0.635-2.061c0.424-0.593,1.015-1.056,1.774-1.388s1.642-0.498,2.646-0.498c1.038,0,1.929,0.174,2.671,0.523
			c0.743,0.349,1.324,0.822,1.743,1.419s0.649,1.27,0.691,2.017l0.013,0.149h-2.528l-0.012-0.087c-0.083-0.572-0.343-1.04-0.778-1.4
			c-0.436-0.361-1.036-0.542-1.8-0.542c-0.722,0-1.295,0.158-1.718,0.474s-0.635,0.734-0.635,1.257v0.012
			c0,0.407,0.147,0.75,0.441,1.027c0.295,0.278,0.795,0.5,1.501,0.666l2.129,0.486c0.896,0.208,1.614,0.469,2.154,0.785
			c0.539,0.315,0.932,0.699,1.177,1.151c0.244,0.452,0.367,0.994,0.367,1.625v0.013c0,0.598-0.131,1.144-0.393,1.637
			c-0.262,0.494-0.633,0.92-1.114,1.276c-0.481,0.357-1.046,0.633-1.693,0.828C280.342,63.265,279.632,63.363,278.86,63.363z"/>
		<path d="M290.99,63.363c-1.295,0-2.258-0.293-2.889-0.878c-0.631-0.586-0.946-1.529-0.946-2.833v-7.508h-1.88v-2.142h1.88v-3.412
			h2.752v3.412h2.453v2.142h-2.453v7.346c0,0.664,0.147,1.119,0.441,1.363c0.295,0.245,0.725,0.368,1.289,0.368
			c0.141,0,0.271-0.007,0.393-0.02c0.12-0.012,0.23-0.022,0.33-0.03v2.079c-0.158,0.024-0.357,0.05-0.598,0.074
			C291.522,63.35,291.265,63.363,290.99,63.363z"/>
	</g>
	<g id="XMLID_1_">
		<path id="XMLID_2_" d="M51.431,46.33c-0.078,0.223-1.328,4.531-4.375,8.982c-2.631,3.85-5.363,7.686-9.67,7.764
			c-4.228,0.08-5.59-2.51-10.422-2.51c-4.838,0-6.35,2.432-10.348,2.59c-4.154,0.156-7.322-4.162-9.973-7.996
			c-5.428-7.844-9.568-22.162-4-31.82c2.758-4.803,7.701-7.842,13.064-7.92c4.084-0.076,7.93,2.742,10.426,2.742
			c2.492,0,7.17-3.393,12.088-2.894c2.059,0.088,7.84,0.828,11.553,6.264c-0.295,0.188-6.898,4.029-6.826,12.018
			C43.035,43.111,51.334,46.291,51.431,46.33z M35,10.084C37.21,7.41,38.693,3.697,38.287,0c-3.178,0.117-7.027,2.115-9.303,4.785
			c-2.045,2.363-3.838,6.144-3.352,9.766C29.173,14.826,32.798,12.75,35,10.084z"/>
	</g>
</g>
</svg>
