<svg xmlns="http://www.w3.org/2000/svg" id="svg31" xml:space="preserve" viewBox="0 0 252.6600037 64.4000015" height="64.4000015px" width="252.6600037px" y="0px" x="0px" version="1.1"><defs id="defs31"></defs>
<g id="Layer_1">
</g>
<g transform="matrix(0.86688175,0,0,0.86688175,1.7436779,3.9136117)" id="Lockup">
	<g id="XMLID_2_">
		<g id="XMLID_314_">
			<path d="m 51.431122,46.330101 c -0.0781,0.222599 -1.328099,4.5312 -4.375,8.982399 -2.630799,3.849602 -5.363198,7.685501 -9.669899,7.763699 -4.228493,0.0801 -5.5898,-2.5098 -10.4219,-2.5098 -4.837799,0 -6.349594,2.431602 -10.347593,2.589901 C 12.462423,63.3125 9.2944231,58.994099 6.6440239,55.160198 1.2163243,47.316399 -2.9242706,32.998001 2.6440241,23.3398 5.401824,18.5371 10.345224,15.498 15.708524,15.4199 c 4.083999,-0.0761 7.9297,2.7422 10.425799,2.7422 2.492199,0 7.169899,-3.3926 12.087899,-2.8945 2.058506,0.0879 7.839801,0.828099 11.5527,6.2637 -0.294899,0.1875 -6.8984,4.029199 -6.826191,12.017501 0.086,9.5625 8.384792,12.742199 8.482391,12.7813 z M 34.999523,10.084 C 37.210422,7.4102001 38.692924,3.6973 38.286621,0 35.108921,0.1172 31.259323,2.1152 28.983923,4.7852001 26.939024,7.1483998 25.146023,10.9297 25.632322,14.5508 29.173323,14.8262 32.798325,12.75 34.999523,10.084 Z" id="XMLID_315_"></path>
		</g>
		<g id="g25">
			<path id="path1" d="m 79.967804,28.244999 h -6.848633 l -1.643555,4.855957 h -2.90039 l 6.486328,-17.967285 h 3.013672 l 6.486328,17.967285 h -2.950195 z m -6.138672,-2.241211 h 5.428711 l -2.676758,-7.881836 h -0.0752 z"></path>
			<path id="path2" d="m 97.434601,33.100956 h -2.578125 v -2.253418 h -0.06152 c -0.74707,1.568359 -2.054687,2.402832 -4.05957,2.402832 -2.851562,0 -4.59375,-1.842773 -4.59375,-4.843262 v -8.404785 h 2.689453 v 7.881348 c 0,1.992187 0.945313,3.050781 2.800781,3.050781 1.942383,0 3.113282,-1.344727 3.113282,-3.386719 v -7.54541 h 2.689453 v 13.098633 z"></path>
			<path id="path3" d="m 103.95609,16.902225 v 3.100098 h 2.49023 v 2.129395 h -2.49023 v 7.221679 c 0,1.120118 0.49804,1.643555 1.59375,1.643555 0.27441,0 0.70996,-0.0376 0.88476,-0.0625 v 2.116699 c -0.29883,0.07471 -0.89648,0.124512 -1.49414,0.124512 -2.65234,0 -3.68555,-0.996094 -3.68555,-3.536133 v -7.507812 h -1.90527 v -2.129395 h 1.90527 v -3.100098 z"></path>
			<path id="path4" d="m 109.13284,15.133671 h 2.66504 v 7.097656 h 0.0625 c 0.78418,-1.569336 2.14063,-2.378418 4.14551,-2.378418 2.87598,0 4.59473,1.91748 4.59473,4.880859 v 8.367188 h -2.70215 v -7.831543 c 0,-1.930176 -0.9707,-3.100586 -2.86328,-3.100586 -1.99219,0 -3.21289,1.369629 -3.21289,3.449219 v 7.48291 h -2.68946 z"></path>
			<path id="path5" d="m 122.98929,26.55164 c 0,-4.121094 2.42773,-6.710938 6.21289,-6.710938 3.79785,0 6.21289,2.589844 6.21289,6.710938 0,4.133789 -2.40234,6.710937 -6.21289,6.710937 -3.80957,0 -6.21289,-2.577148 -6.21289,-6.710937 z m 9.6875,0 c 0,-2.826172 -1.29492,-4.495118 -3.47461,-4.495118 -2.17871,0 -3.47363,1.681153 -3.47363,4.495118 0,2.838867 1.29492,4.495117 3.47363,4.495117 2.17969,0 3.47461,-1.65625 3.47461,-4.495117 z"></path>
			<path id="path6" d="m 137.87796,20.002323 h 2.56543 v 2.229004 h 0.0615 c 0.41114,-1.481934 1.60645,-2.366211 3.15039,-2.366211 0.38672,0 0.70996,0.0498 0.92188,0.09961 v 2.515625 c -0.21192,-0.0874 -0.68555,-0.16211 -1.20801,-0.16211 -1.73047,0 -2.80176,1.17041 -2.80176,3.013184 v 7.769531 h -2.68945 V 20.002323 Z"></path>
			<path id="path7" d="m 146.50491,16.553593 c 0,-0.859375 0.69727,-1.543946 1.55664,-1.543946 0.8711,0 1.56836,0.684571 1.56836,1.543946 0,0.846679 -0.69726,1.53125 -1.56836,1.53125 -0.85937,0 -1.55664,-0.684571 -1.55664,-1.53125 z m 0.21094,3.44873 h 2.68945 v 13.098633 h -2.68945 z"></path>
			<path id="path8" d="m 152.26663,31.369999 6.98438,-9.17627 v -0.0498 h -6.93457 V 20.002327 H 162.3389 V 21.8451 l -6.81055,9.064454 v 0.0498 h 6.88574 v 2.141602 h -10.14746 z"></path>
			<path id="path9" d="m 176.02054,29.253788 c -0.36133,2.37793 -2.67774,4.008789 -5.64063,4.008789 -3.81054,0 -6.17578,-2.552246 -6.17578,-6.648437 0,-4.109375 2.37793,-6.773438 6.06348,-6.773438 3.62402,0 5.90234,2.490234 5.90234,6.461914 v 0.921387 h -9.25097 v 0.161621 c 0,2.241211 1.40625,3.710938 3.52343,3.710938 1.49414,0 2.66407,-0.709961 3.02539,-1.842774 z m -9.08985,-3.910156 h 6.54981 c -0.0625,-2.004395 -1.34473,-3.324219 -3.21289,-3.324219 -1.85449,0 -3.2002,1.344727 -3.33692,3.324219 z"></path>
			<path id="path10" d="m 178.04788,26.55164 c 0,-4.046875 2.22852,-6.686524 5.47852,-6.686524 1.87988,0 3.36133,0.872071 4.10937,2.316406 h 0.0488 v -7.047851 h 2.70215 v 17.967285 h -2.61426 v -2.229004 h -0.0498 c -0.77246,1.494141 -2.2666,2.366211 -4.1709,2.366211 -3.27539,0 -5.50391,-2.639648 -5.50391,-6.686523 z m 2.75196,0 c 0,2.689453 1.36914,4.407714 3.46093,4.407714 2.06739,0 3.44922,-1.743164 3.44922,-4.407714 0,-2.639649 -1.38183,-4.395508 -3.44922,-4.395508 -2.09179,0 -3.46093,1.730957 -3.46093,4.395508 z"></path>
			<path id="path11" d="m 71.862335,58.095585 c 0.199219,1.78125 1.929688,2.951172 4.294922,2.951172 2.266602,0 3.897461,-1.169922 3.897461,-2.776367 0,-1.394532 -0.983398,-2.228516 -3.311523,-2.801758 l -2.329102,-0.560547 c -3.299805,-0.796875 -4.831055,-2.339844 -4.831055,-4.842774 0,-3.100585 2.702149,-5.229492 6.53711,-5.229492 3.797851,0 6.40039,2.128906 6.487304,5.229492 h -2.714843 c -0.161133,-1.792968 -1.643555,-2.875976 -3.809571,-2.875976 -2.166992,0 -3.648437,1.095703 -3.648437,2.689453 0,1.269531 0.946289,2.016602 3.261719,2.589844 l 1.980468,0.485351 c 3.685547,0.871094 5.216797,2.352539 5.216797,4.980469 0,3.361328 -2.676757,5.46582 -6.935547,5.46582 -3.984375,0 -6.673828,-2.054687 -6.847656,-5.304687 z"></path>
			<path id="path12" d="m 96.559601,59.253788 c -0.361328,2.378906 -2.677735,4.009766 -5.640625,4.009766 -3.810547,0 -6.175781,-2.552735 -6.175781,-6.649415 0,-4.108398 2.377929,-6.773437 6.063476,-6.773437 3.624024,0 5.902344,2.490234 5.902344,6.461914 v 0.921875 H 87.458038 V 57.3866 c 0,2.241211 1.40625,3.709961 3.523438,3.709961 1.49414,0 2.664062,-0.709961 3.02539,-1.842773 z m -9.089844,-3.90918 h 6.549805 c -0.0625,-2.004883 -1.344727,-3.325195 -3.212891,-3.325195 -1.854492,0 -3.200195,1.345703 -3.336914,3.325195 z"></path>
			<path id="path13" d="m 99.171905,50.002811 h 2.565435 v 2.228516 h 0.0625 c 0.41015,-1.481445 1.60546,-2.365234 3.14941,-2.365234 0.38574,0 0.70996,0.0498 0.92187,0.09961 v 2.514648 c -0.21191,-0.08691 -0.68457,-0.162109 -1.208,-0.162109 -1.73047,0 -2.80176,1.170898 -2.80176,3.013672 v 7.769531 H 99.171906 V 50.002811 Z"></path>
			<path id="path14" d="m 114.58792,63.101444 h -2.88867 L 106.9805,50.002811 h 2.86328 l 3.28711,10.47168 h 0.0498 l 3.28711,-10.47168 h 2.81446 z"></path>
			<path id="path15" d="m 121.08499,46.553593 c 0,-0.858399 0.69727,-1.543946 1.55664,-1.543946 0.8711,0 1.56836,0.685547 1.56836,1.543946 0,0.846679 -0.69726,1.532226 -1.56836,1.532226 -0.85937,0 -1.55664,-0.685547 -1.55664,-1.532226 z m 0.21094,3.449218 h 2.68945 v 13.098633 h -2.68945 z"></path>
			<path id="path16" d="m 135.67191,54.509647 c -0.23633,-1.381836 -1.31934,-2.415039 -3.0879,-2.415039 -2.06738,0 -3.43652,1.730469 -3.43652,4.458008 0,2.789063 1.38184,4.469727 3.46094,4.469727 1.66894,0 2.76465,-0.834961 3.06348,-2.353516 h 2.58984 c -0.29883,2.751953 -2.50293,4.594727 -5.67773,4.594727 -3.73536,0 -6.17579,-2.552735 -6.17579,-6.710938 0,-4.072265 2.44043,-6.711914 6.15137,-6.711914 3.36133,0 5.45313,2.117188 5.67774,4.668945 z"></path>
			<path id="path17" d="m 151.78128,59.253788 c -0.36133,2.378906 -2.67676,4.009766 -5.64062,4.009766 -3.80957,0 -6.17579,-2.552735 -6.17579,-6.649415 0,-4.108398 2.37793,-6.773437 6.06348,-6.773437 3.62305,0 5.90234,2.490234 5.90234,6.461914 v 0.921875 h -9.25195 V 57.3866 c 0,2.241211 1.40723,3.709961 3.52442,3.709961 1.49414,0 2.66406,-0.709961 3.02539,-1.842773 z m -9.08984,-3.90918 h 6.5498 c -0.0625,-2.004883 -1.34473,-3.325195 -3.21289,-3.325195 -1.85547,0 -3.19922,1.345703 -3.33691,3.325195 z"></path>
			<path id="path18" d="m 167.00296,45.134647 c 3.48633,0 5.91504,2.402344 5.91504,5.901368 0,3.511718 -2.47754,5.926757 -6.00195,5.926757 h -3.85938 v 6.138672 h -2.78906 V 45.134647 Z m -3.94629,9.487305 h 3.2002 c 2.42773,0 3.80957,-1.307617 3.80957,-3.573242 0,-2.265625 -1.38184,-3.560547 -3.79785,-3.560547 h -3.21192 z"></path>
			<path id="path19" d="m 175.2139,50.002811 h 2.56543 v 2.228516 h 0.0615 c 0.41113,-1.481445 1.60645,-2.365234 3.15039,-2.365234 0.38672,0 0.70996,0.0498 0.92188,0.09961 v 2.514648 c -0.21192,-0.08691 -0.68555,-0.162109 -1.20801,-0.162109 -1.73047,0 -2.80176,1.170898 -2.80176,3.013672 v 7.769531 h -2.68943 z"></path>
			<path id="path20" d="m 182.81937,56.552616 c 0,-4.12207 2.42773,-6.711914 6.21289,-6.711914 3.79785,0 6.21289,2.589844 6.21289,6.711914 0,4.132813 -2.40235,6.710938 -6.21289,6.710938 -3.80957,0 -6.21289,-2.578125 -6.21289,-6.710938 z m 9.6875,0 c 0,-2.827148 -1.29493,-4.495117 -3.47461,-4.495117 -2.17871,0 -3.47364,1.680664 -3.47364,4.495117 0,2.837891 1.29493,4.494141 3.47364,4.494141 2.17968,0 3.47461,-1.65625 3.47461,-4.494141 z"></path>
			<path id="path21" d="m 203.84671,63.101444 h -2.88867 l -4.71875,-13.098633 h 2.86328 l 3.28711,10.47168 h 0.0498 l 3.28711,-10.47168 h 2.81446 z"></path>
			<path id="path22" d="m 210.34476,46.553593 c 0,-0.858399 0.69726,-1.543946 1.55664,-1.543946 0.87109,0 1.56836,0.685547 1.56836,1.543946 0,0.846679 -0.69727,1.532226 -1.56836,1.532226 -0.85938,0 -1.55664,-0.685547 -1.55664,-1.532226 z m 0.21093,3.449218 h 2.68946 v 13.098633 h -2.68946 z"></path>
			<path id="path23" d="m 215.79495,56.552616 c 0,-4.046875 2.22852,-6.686523 5.47852,-6.686523 1.87988,0 3.3623,0.871093 4.1084,2.315429 h 0.0508 v -7.046875 h 2.70117 v 17.966797 h -2.61426 v -2.228515 h -0.0498 c -0.77246,1.49414 -2.2666,2.365234 -4.17188,2.365234 -3.27441,0 -5.50293,-2.639648 -5.50293,-6.685547 z m 2.75196,0 c 0,2.689453 1.36914,4.407227 3.46093,4.407227 2.06739,0 3.44922,-1.743164 3.44922,-4.407227 0,-2.640625 -1.38183,-4.395508 -3.44922,-4.395508 -2.09179,0 -3.46093,1.730469 -3.46093,4.395508 z"></path>
			<path id="path24" d="m 242.50003,59.253788 c -0.36133,2.378906 -2.67676,4.009766 -5.64062,4.009766 -3.80957,0 -6.17579,-2.552735 -6.17579,-6.649415 0,-4.108398 2.37793,-6.773437 6.06348,-6.773437 3.62305,0 5.90234,2.490234 5.90234,6.461914 v 0.921875 h -9.25195 V 57.3866 c 0,2.241211 1.40723,3.709961 3.52442,3.709961 1.49414,0 2.66406,-0.709961 3.02539,-1.842773 z m -9.08984,-3.90918 h 6.5498 c -0.0625,-2.004883 -1.34473,-3.325195 -3.21289,-3.325195 -1.85547,0 -3.19922,1.345703 -3.33691,3.325195 z"></path>
			<path id="path25" d="m 244.95901,50.002811 h 2.56543 v 2.228516 h 0.0625 c 0.41016,-1.481445 1.60547,-2.365234 3.14942,-2.365234 0.38574,0 0.70996,0.0498 0.92187,0.09961 v 2.514648 c -0.21191,-0.08691 -0.68457,-0.162109 -1.208,-0.162109 -1.73047,0 -2.80176,1.170898 -2.80176,3.013672 v 7.769531 h -2.68945 V 50.002811 Z"></path>
		</g>
	</g>
	<g id="g26">
	</g>
	<g id="g27">
	</g>
	<g id="g28">
	</g>
	<g id="g29">
	</g>
	<g id="g30">
	</g>
	<g id="g31">
	</g>
</g>
</svg>