<svg width="76" height="36" viewBox="0 0 76 36" fill="none" xmlns="http://www.w3.org/2000/svg">
<g clip-path="url(#clip0_57_7072)">
<path fill-rule="evenodd" clip-rule="evenodd" d="M66.0075 0.546662C67.1869 0.548575 67.9475 0.551308 68.5219 0.556501C69.0887 0.561421 69.477 0.568528 69.7893 0.578641C70.3848 0.597774 70.8108 0.632487 71.1806 0.684967C71.8014 0.773253 72.3042 0.921945 72.7647 1.14498C73.2229 1.36665 73.6383 1.66376 73.9943 2.02265C74.3503 2.38153 74.6439 2.79973 74.8631 3.26084C75.0834 3.72441 75.231 4.23061 75.3187 4.85709C75.3708 5.22991 75.4058 5.66068 75.4253 6.26201C75.4354 6.57743 75.4427 6.96911 75.4476 7.5412C75.4527 8.12066 75.4557 8.88762 75.4576 10.0761V25.5955C75.4557 26.784 75.4527 27.5509 75.4476 28.1304C75.4424 28.7022 75.4354 29.0941 75.4253 29.4096C75.4058 30.0112 75.371 30.4417 75.3187 30.8145C75.231 31.4407 75.0834 31.9472 74.8631 32.4107C74.6439 32.8719 74.35 33.2903 73.9943 33.6489C73.6383 34.0078 73.2229 34.3047 72.7647 34.5266C72.3042 34.7494 71.8014 34.8983 71.1806 34.9866C70.8111 35.0391 70.3851 35.0738 69.7893 35.0929C69.477 35.1031 69.0887 35.1102 68.5219 35.1151C67.9475 35.12 67.1869 35.123 66.0075 35.1249H9.9928C8.81333 35.123 8.05279 35.1203 7.47839 35.1151C6.91158 35.1102 6.52331 35.1031 6.21101 35.0929C5.61544 35.0738 5.18945 35.0391 4.81963 34.9866C4.19883 34.8983 3.69605 34.7496 3.23561 34.5266C2.77733 34.3049 2.36193 34.0078 2.00594 33.6489C1.64996 33.2901 1.35638 32.8719 1.13714 32.4107C0.916823 31.9472 0.76922 31.441 0.68158 30.8145C0.629485 30.4417 0.594483 30.0109 0.575219 29.4096C0.56518 29.0941 0.557854 28.7025 0.55297 28.1304C0.547815 27.5509 0.54483 26.784 0.542931 25.5955V10.0758C0.54483 8.88735 0.547815 8.12038 0.55297 7.54092C0.558125 6.96912 0.56518 6.57716 0.575219 6.26173C0.594755 5.66013 0.629485 5.22964 0.68158 4.85681C0.76922 4.23061 0.916823 3.72413 1.13714 3.26056C1.35638 2.79945 1.65023 2.38098 2.00594 2.02237C2.36165 1.66376 2.77733 1.36665 3.23561 1.14471C3.69605 0.921945 4.19883 0.772979 4.81963 0.684694C5.18918 0.632214 5.61517 0.597501 6.21101 0.578368C6.52331 0.568255 6.91158 0.561148 7.47839 0.556228C8.05279 0.551308 8.81333 0.548302 9.9928 0.546388H66.0075V0.546662ZM66.0083 0H66.0077H66.0072H9.9928C8.81062 0.00191332 8.049 0.00491995 7.47351 0.00983991C6.91321 0.0147599 6.51842 0.0215931 6.19337 0.032253C5.59862 0.0513862 5.15147 0.0858259 4.74393 0.143499C4.07483 0.238618 3.52077 0.400156 3.00036 0.651894C2.48674 0.900625 2.02276 1.23163 1.62201 1.63588C1.22153 2.03959 0.89376 2.50672 0.647664 3.02441C0.398583 3.54838 0.238499 4.10625 0.144076 4.78028C0.0862828 5.19383 0.051824 5.6451 0.0325596 6.24397C0.0219777 6.57634 0.0149231 6.97458 0.0100392 7.536C0.00515526 8.10644 0.00189931 8.86576 0 10.0747V25.595C0.00189931 26.8047 0.00515526 27.564 0.0100392 28.1348C0.0149231 28.6959 0.0219777 29.0944 0.0325596 29.4265C0.051824 30.0254 0.0862828 30.4767 0.144076 30.8902C0.238499 31.5642 0.398312 32.1224 0.647664 32.6464C0.89376 33.164 1.22153 33.6312 1.62201 34.0349C2.02276 34.4391 2.48674 34.7701 3.00036 35.0189C3.5205 35.2709 4.07456 35.4324 4.74366 35.5273C5.15147 35.5852 5.59862 35.6194 6.19337 35.6385C6.51815 35.6492 6.91294 35.656 7.47323 35.6609C8.04845 35.6658 8.81035 35.6688 9.99172 35.6708H66.0072C67.1894 35.6688 67.951 35.6661 68.5265 35.6609C69.0868 35.656 69.4816 35.6492 69.8066 35.6385C70.4014 35.6194 70.8485 35.5849 71.2561 35.5273C71.9252 35.4321 72.4792 35.2706 72.9996 35.0189C73.5133 34.7701 73.9772 34.4391 74.378 34.0349C74.7785 33.6312 75.1062 33.164 75.3523 32.6464C75.6014 32.1224 75.7615 31.5645 75.8559 30.8905C75.9137 30.4772 75.9482 30.0259 75.9674 29.4268C75.978 29.0944 75.9851 28.6959 75.99 28.1348C75.9951 27.5638 75.9981 26.8045 76 25.5961V10.0758C75.9981 8.8663 75.9948 8.10699 75.99 7.536C75.9851 6.97485 75.978 6.57634 75.9674 6.24424C75.9482 5.6451 75.9137 5.19383 75.8559 4.78056C75.7615 4.10652 75.6017 3.54838 75.3523 3.02441C75.1062 2.50672 74.7785 2.03959 74.378 1.63588C73.9772 1.23163 73.5133 0.900625 72.9996 0.651894C72.4795 0.400156 71.9254 0.238344 71.2563 0.143499C70.8485 0.0855525 70.4014 0.0513862 69.8066 0.032253C69.4816 0.0218665 69.0868 0.0147599 68.5268 0.00983991C67.9513 0.00491995 67.1896 0.00191332 66.0083 0ZM21.5565 11.6096C20.5783 11.5368 19.691 11.8905 18.9768 12.1753C18.5257 12.3552 18.1436 12.5075 17.8512 12.5075C17.5193 12.5075 17.1094 12.3439 16.6496 12.1602C16.0478 11.9199 15.3605 11.6455 14.6504 11.6591C13.005 11.6834 11.4888 12.6234 10.6407 14.1073C8.93182 17.0951 10.2044 21.5228 11.869 23.9472C12.6832 25.1319 13.6543 26.4671 14.9296 26.4184C15.4996 26.3958 15.9051 26.2218 16.3245 26.0418C16.8084 25.834 17.3108 25.6184 18.1058 25.6184C18.8642 25.6184 19.3443 25.8276 19.8059 26.0289C20.2469 26.2212 20.6712 26.4061 21.3055 26.3944C22.6269 26.3698 23.4642 25.1852 24.2725 23.9937C25.1655 22.6808 25.5561 21.4078 25.6095 21.2339L25.6148 21.2167C25.5855 21.2055 23.0391 20.2212 23.0136 17.2657C22.9909 14.8403 24.9413 13.6514 25.1009 13.5541L25.108 13.5497C23.9578 11.8444 22.1822 11.6564 21.5565 11.6096ZM21.5779 6.89147C21.7035 8.03454 21.2474 9.1839 20.5696 10.0091C19.8924 10.8348 18.7827 11.476 17.6952 11.391C17.5457 10.2715 18.0962 9.10135 18.7227 8.37074C19.4224 7.5461 20.6025 6.93056 21.5779 6.89147Z" fill="black"/>
<path d="M31.4067 10.0363H33.7654C35.0086 10.0363 35.8696 10.877 35.8696 12.1291V12.1382C35.8696 13.3859 35.0086 14.2401 33.7654 14.2401H32.3906V16.4215H31.4067V10.0363ZM32.3906 10.8724V13.4081H33.5196C34.3762 13.4081 34.8681 12.9434 34.8681 12.1425V12.1338C34.8681 11.337 34.3764 10.8726 33.5196 10.8726H32.3906V10.8724Z" fill="black"/>
<path d="M36.7773 11.7679H37.7262V12.5644H37.7482C37.8974 12.0202 38.284 11.6793 38.8112 11.6793C38.9472 11.6793 39.0657 11.7015 39.1406 11.7149V12.6043C39.066 12.5734 38.8989 12.5512 38.7146 12.5512C38.1039 12.5512 37.7262 12.9541 37.7262 13.6487V16.4232H36.7773V11.7679Z" fill="black"/>
<path d="M39.6128 14.1131V14.1087C39.6128 12.6529 40.4474 11.6793 41.7433 11.6793C43.0391 11.6793 43.8341 12.6177 43.8341 14.0158V14.3388H40.5616C40.579 15.2195 41.0579 15.7328 41.8133 15.7328C42.3755 15.7328 42.7488 15.4406 42.8677 15.091L42.881 15.0558H43.7812L43.7726 15.1044C43.6233 15.8435 42.9116 16.5162 41.7913 16.5162C40.4341 16.5159 39.6128 15.5822 39.6128 14.1131ZM40.5744 13.6618H42.894C42.8148 12.8566 42.3668 12.4627 41.7473 12.4627C41.1325 12.4624 40.658 12.8828 40.5744 13.6618Z" fill="black"/>
<path d="M44.7911 11.7679H45.7399V12.4892H45.7619C45.9597 12.0024 46.4294 11.6793 47.0355 11.6793C47.6726 11.6793 48.1379 12.0111 48.3227 12.5955H48.3447C48.5818 12.0292 49.1264 11.6793 49.7854 11.6793C50.699 11.6793 51.2965 12.2899 51.2965 13.2236V16.423H50.3433V13.4538C50.3433 12.8475 50.0223 12.4979 49.4601 12.4979C48.8979 12.4979 48.5069 12.9227 48.5069 13.5115V16.4232H47.5755V13.383C47.5755 12.8432 47.2374 12.4979 46.7012 12.4979C46.139 12.4979 45.7394 12.9448 45.7394 13.5467V16.423H44.7905V11.7679H44.7911Z" fill="black"/>
<path d="M52.3945 10.5024C52.3945 10.1971 52.6404 9.94922 52.9478 9.94922C53.2598 9.94922 53.5013 10.1971 53.5013 10.5024C53.5013 10.8034 53.2598 11.051 52.9478 11.051C52.6404 11.051 52.3945 10.8034 52.3945 10.5024ZM52.4735 11.768H53.4223V16.4231H52.4735V11.768Z" fill="black"/>
<path d="M54.605 14.7842V11.7664H55.5538V14.5983C55.5538 15.3019 55.8789 15.6914 56.5377 15.6914C57.2054 15.6914 57.636 15.209 57.636 14.4835V11.7666H58.5892V16.4217H57.636V15.7225H57.614C57.3723 16.1916 56.9023 16.5147 56.1996 16.5147C55.1848 16.5144 54.605 15.8551 54.605 14.7842Z" fill="black"/>
<path d="M59.7037 11.7679H60.6525V12.4892H60.6745C60.8723 12.0024 61.342 11.6793 61.9481 11.6793C62.5852 11.6793 63.0505 12.0111 63.2353 12.5955H63.2573C63.4944 12.0292 64.039 11.6793 64.698 11.6793C65.6116 11.6793 66.2091 12.2899 66.2091 13.2236V16.423H65.2559V13.4538C65.2559 12.8475 64.9349 12.4979 64.3727 12.4979C63.8105 12.4979 63.4195 12.9227 63.4195 13.5115V16.4232H62.4881V13.383C62.4881 12.8432 62.15 12.4979 61.6138 12.4979C61.0516 12.4979 60.652 12.9448 60.652 13.5467V16.423H59.7031V11.7679H59.7037Z" fill="black"/>
<path d="M31.4067 19.4764H33.7654C35.0086 19.4764 35.8696 20.3169 35.8696 21.5693V21.5781C35.8696 22.8258 35.0086 23.68 33.7654 23.68H32.3906V25.8614H31.4067V19.4764ZM32.3906 20.3128V22.8483H33.5196C34.3762 22.8483 34.8681 22.3836 34.8681 21.5827V21.574C34.8681 20.7772 34.3764 20.3128 33.5196 20.3128H32.3906Z" fill="black"/>
<path d="M36.3677 24.5363V24.5276C36.3677 23.7177 36.9915 23.2222 38.0852 23.1557L39.3415 23.0806V22.731C39.3415 22.2177 39.0121 21.9077 38.4233 21.9077C37.8744 21.9077 37.5358 22.169 37.4568 22.5405L37.4481 22.5804H36.5519L36.5563 22.5317C36.6222 21.7306 37.3119 21.1156 38.4499 21.1156C39.5786 21.1156 40.2946 21.7175 40.2946 22.6512V25.8595H39.3415V25.1248H39.3241C39.056 25.6247 38.5201 25.9434 37.9094 25.9434C36.9871 25.9437 36.3677 25.3727 36.3677 24.5363ZM38.1688 25.1781C38.8362 25.1781 39.3415 24.7222 39.3415 24.116V23.7532L38.2125 23.824C37.6416 23.8593 37.3252 24.1116 37.3252 24.5054V24.5142C37.3255 24.9215 37.6592 25.1781 38.1688 25.1781Z" fill="black"/>
<path d="M41.3926 21.2081H42.3414V22.0046H42.3634C42.5126 21.4604 42.8993 21.1195 43.4265 21.1195C43.5624 21.1195 43.681 21.1416 43.7559 21.155V22.0445C43.6812 22.0136 43.5141 21.9914 43.3299 21.9914C42.7191 21.9914 42.3414 22.394 42.3414 23.0889V25.8632H41.3926V21.2081Z" fill="black"/>
<path d="M45.1504 24.6354V21.9669H44.4873V21.2059H45.1504V19.9932H46.1213V21.2059H46.9865V21.9669H46.1213V24.5777C46.1213 25.0511 46.3321 25.1927 46.7317 25.1927C46.833 25.1927 46.9165 25.184 46.9865 25.1752V25.9143C46.8766 25.9318 46.6967 25.9542 46.5033 25.9542C45.5897 25.954 45.1504 25.5645 45.1504 24.6354Z" fill="black"/>
<path d="M47.9937 21.2081H48.9425V21.9113H48.9645C49.206 21.4382 49.6805 21.1195 50.3789 21.1195C51.3934 21.1195 51.9779 21.7788 51.9779 22.8497V25.8632H51.0247V23.0312C51.0247 22.3317 50.6996 21.9381 50.0406 21.9381C49.3728 21.9381 48.9425 22.4249 48.9425 23.1506V25.8634H47.9937V21.2081Z" fill="black"/>
<path d="M52.9082 23.5496V23.545C52.9082 22.0892 53.7428 21.1156 55.0387 21.1156C56.3346 21.1156 57.1295 22.0539 57.1295 23.452V23.7751H53.857C53.8744 24.6558 54.3533 25.1694 55.1087 25.1694C55.6709 25.1694 56.0442 24.8772 56.1631 24.5276L56.1764 24.4921H57.0766L57.068 24.5407C56.9187 25.2798 56.207 25.9525 55.0867 25.9525C53.7298 25.9525 52.9082 25.0188 52.9082 23.5496ZM53.8701 23.0983H56.1897C56.1104 22.2931 55.6625 21.899 55.043 21.899C54.4282 21.899 53.9536 22.3193 53.8701 23.0983Z" fill="black"/>
<path d="M58.1343 21.2081H59.0831V22.0046H59.1051C59.2543 21.4604 59.641 21.1195 60.1682 21.1195C60.3041 21.1195 60.4227 21.1416 60.4976 21.155V22.0445C60.4229 22.0136 60.2558 21.9914 60.0716 21.9914C59.4608 21.9914 59.0831 22.394 59.0831 23.0889V25.8632H58.1343V21.2081Z" fill="black"/>
</g>
<defs>
<clipPath id="clip0_57_7072">
<rect width="76" height="36" fill="white"/>
</clipPath>
</defs>
</svg>
