<svg width="38" height="24" viewBox="0 0 38 24" fill="none" xmlns="http://www.w3.org/2000/svg">
<rect x="0.5" y="0.5" width="37" height="23" rx="2.5" fill="white"/>
<rect x="0.5" y="0.5" width="37" height="23" rx="2.5" stroke="#EEEEEE"/>
<path d="M10.4257 7.83831C10.1093 8.21808 9.6029 8.51874 9.09654 8.47127C9.02797 7.95963 9.28115 7.41634 9.57125 7.07877C9.88773 6.69372 10.4416 6.41416 10.8899 6.39307C10.9479 6.9258 10.7422 7.44799 10.4257 7.83831ZM10.8899 8.57148C10.1567 8.52929 9.52906 8.99345 9.18093 8.99345C8.82753 8.99345 8.2948 8.59258 7.71459 8.6084C6.96032 8.61895 6.25879 9.0462 5.87902 9.73717C5.08256 11.1138 5.67331 13.1498 6.43813 14.2681C6.81263 14.8219 7.26097 15.4285 7.85173 15.4127C8.41084 15.3916 8.63237 15.0434 9.30752 15.0434C9.98795 15.0434 10.1831 15.4127 10.7739 15.3968C11.3857 15.3863 11.7708 14.843 12.1453 14.2892C12.5725 13.6615 12.7466 13.0444 12.7571 13.0127C12.7466 12.9969 11.5756 12.5485 11.5651 11.1824C11.5545 10.0378 12.4881 9.49454 12.525 9.46289C11.9976 8.67697 11.1695 8.59258 10.8899 8.57148ZM15.1254 7.02602V15.3441H16.4019V12.5011H18.1689C19.7829 12.5011 20.9169 11.3829 20.9169 9.76355C20.9169 8.14424 19.804 7.0313 18.2111 7.0313L15.1254 7.02602ZM16.4019 8.11787H17.8735C18.9812 8.11787 19.6141 8.7139 19.6141 9.76882C19.6141 10.8237 18.9812 11.4198 17.8629 11.4198H16.3966V8.11787H16.4019ZM23.2431 15.4074C24.0501 15.4074 24.7885 14.996 25.1314 14.3472H25.1577V15.3441H26.3393V11.2035C26.3393 10.0062 25.3898 9.23081 23.9235 9.23081C22.5679 9.23081 21.5657 10.0167 21.5341 11.0927H22.6839C22.7789 10.5811 23.2483 10.2435 23.8918 10.2435C24.6725 10.2435 25.1103 10.6128 25.1103 11.2879V11.7468L23.5173 11.8417C22.0299 11.9314 21.2334 12.5433 21.2334 13.614C21.2334 14.6953 22.0615 15.4074 23.2431 15.4074ZM23.5912 14.421C22.9108 14.421 22.473 14.0887 22.473 13.5876C22.473 13.0655 22.8897 12.7543 23.6861 12.7068L25.105 12.6171V13.0866C25.1103 13.8672 24.4562 14.421 23.5912 14.421ZM27.9216 17.6069C29.1664 17.6069 29.7519 17.1216 30.2583 15.6658L32.5 9.30993H31.2024L29.6992 14.2206H29.6728L28.1695 9.30993H26.8351L28.9977 15.3652L28.8816 15.7344C28.6812 16.3568 28.37 16.5942 27.8056 16.5942C27.7054 16.5942 27.5102 16.5836 27.4311 16.5731V17.57C27.5049 17.5911 27.8214 17.6016 27.9216 17.6069Z" fill="black"/>
</svg>
