<svg width="29" height="26" viewBox="0 0 29 26" fill="none" xmlns="http://www.w3.org/2000/svg">
<g clip-path="url(#clip0_2_1414)">
<path d="M24.4037 14.9877C24.4037 16.5228 23.3475 17.9562 21.6439 18.9789C19.928 20.0089 17.4849 20.6751 14.5053 20.6752C11.4903 20.6752 9.0522 19.9367 7.33435 18.8763L7.09802 18.7299L7.09705 18.4515L7.08924 12.4955L7.08826 11.7172L7.79627 12.0404L11.5863 13.7689L11.5883 13.7699C12.6806 14.2725 13.6089 14.5057 14.4945 14.4877H14.515C15.391 14.5057 16.33 14.2725 17.4222 13.7699L17.4232 13.7689L23.6957 10.8949L24.4037 10.5697V14.9877ZM14.5101 0.586306C15.3954 0.577047 16.2711 0.79341 17.3568 1.29431L27.2982 5.84802H27.2972C28.0071 6.17073 28.4143 6.77774 28.4144 7.45838C28.4144 8.13882 28.0075 8.74583 27.2982 9.06873L17.3578 13.6332L17.3568 13.6322C16.2769 14.1305 15.4021 14.3485 14.517 14.3304L14.5179 14.3314C14.5135 14.3315 14.5087 14.3303 14.5043 14.3304C14.5004 14.3304 14.4965 14.3315 14.4926 14.3314V14.3304C13.5978 14.3484 12.7328 14.131 11.6537 13.6332L7.4115 11.6928L6.44959 11.2533L6.47791 11.2386L6.32654 11.1703L1.71619 9.07166L1.58435 9.00818C0.945151 8.6737 0.585329 8.09857 0.585329 7.45838C0.5855 6.77716 0.993223 6.17034 1.71131 5.84802L11.6527 1.29431C12.7291 0.793019 13.6046 0.577293 14.4984 0.586306C14.5003 0.586282 14.5024 0.586327 14.5043 0.586306C14.5065 0.586331 14.5088 0.585301 14.5111 0.585329L14.5101 0.586306ZM14.5248 6.92322C14.0384 6.92327 13.6023 7.03049 13.3051 7.18006C13.0896 7.28852 13.0109 7.38216 12.9818 7.42908L13.4076 7.85584L13.474 7.82459L13.6683 7.88904C13.9097 7.96945 14.2064 8.01401 14.5248 8.01404C15.0115 8.01404 15.4439 7.90657 15.7367 7.75623C15.8829 7.68112 15.977 7.60477 16.0287 7.54334C16.0534 7.5139 16.0652 7.49121 16.0707 7.47791C16.0756 7.46581 16.0756 7.45979 16.0756 7.45838C16.0756 7.47865 16.0706 7.34825 15.7386 7.18006C15.4444 7.03104 15.0112 6.92322 14.5248 6.92322Z" stroke="#3B77E6"/>
<path d="M4.54753 10.506V14.9884C4.54753 16.0303 5.17702 17.1916 6.19723 18.125L7.10891 18.8522L7.30427 18.9716" stroke="#3B77E6"/>
</g>
<path d="M5.76979 21.7126V24.3865C5.76979 25.1002 6.21208 25.5425 6.92579 25.5425H7.1972C7.91091 25.5425 8.3532 25.1002 8.3532 24.3865V21.7126C8.3532 21.1296 8.07174 20.7375 7.57918 20.5968V19.5916C7.1972 19.3604 6.84537 19.099 6.55386 18.8075V20.5968C6.0613 20.7275 5.76979 21.1296 5.76979 21.7126Z" fill="#3B77E6"/>
<defs>
<clipPath id="clip0_2_1414">
<rect width="29" height="21.2616" fill="white"/>
</clipPath>
</defs>
</svg>
