<svg width="69" height="69" viewBox="0 0 69 69" fill="none" xmlns="http://www.w3.org/2000/svg">
<path d="M41.0915 43.374C41.0914 43.3877 41.0905 43.4014 41.0905 43.415H30.237V43.416L30.2302 43.6553C30.112 45.9908 28.271 47.87 25.9528 48.0518C25.9392 48.0528 25.9255 48.0537 25.9118 48.0547C25.8037 48.0622 25.6947 48.0684 25.5847 48.0684L25.3454 48.0615C22.8877 47.9368 20.9333 45.9047 20.9333 43.416V43.415H15.5065V42.6406H15.5056V20.1572H37.989V25.0068L52.9421 29.4932L53.4938 29.6592V31.7861L53.4948 43.415H50.3942V43.416L50.3874 43.6553C50.263 46.1132 48.2307 48.0682 45.7419 48.0684L45.5026 48.0615C43.0449 47.9368 41.0905 45.9047 41.0905 43.416C41.0905 43.402 41.0914 43.388 41.0915 43.374ZM45.7419 40.3154C44.0294 40.3156 42.6415 41.7036 42.6413 43.416C42.6413 45.1286 44.0293 46.5174 45.7419 46.5176C47.4545 46.5175 48.8434 45.1286 48.8434 43.416C48.8433 41.7035 47.4544 40.3156 45.7419 40.3154ZM25.5847 40.3154C23.8722 40.3156 22.4842 41.7036 22.4841 43.416C22.4841 45.1286 23.8721 46.5174 25.5847 46.5176C27.2973 46.5175 28.6862 45.1286 28.6862 43.416C28.6861 41.7035 27.2971 40.3155 25.5847 40.3154ZM37.989 41.8652H41.3561C41.9949 40.0591 43.717 38.7648 45.7419 38.7646C47.7669 38.7647 49.4897 40.059 50.1286 41.8652H51.945V32.5615H51.944V30.8125L37.989 26.626V41.8652ZM17.0563 41.8652H21.1989C21.8377 40.0591 23.5597 38.7648 25.5847 38.7646C27.6097 38.7647 29.3325 40.059 29.9714 41.8652H36.4382V21.708H17.0563V41.8652ZM41.0954 43.208C41.093 43.2631 41.092 43.3184 41.0915 43.374C41.092 43.3184 41.093 43.2631 41.0954 43.208Z" fill="#C81CA9"/>
</svg>
