<svg width="32" height="32" viewBox="0 0 32 32" fill="none" xmlns="http://www.w3.org/2000/svg">
<g clip-path="url(#clip0_2_1049)">
<path fill-rule="evenodd" clip-rule="evenodd" d="M32 10.0098C32 9.62755 32 9.24533 32 8.86311C32 8.54133 31.9938 8.21956 31.9849 7.89778C31.9765 7.1937 31.915 6.49127 31.8009 5.79644C31.6815 5.10115 31.4595 4.42744 31.1422 3.79733C30.4967 2.53401 29.4681 1.50725 28.2036 0.864C27.5742 0.546515 26.901 0.324809 26.2062 0.206222C25.5112 0.0914088 24.8084 0.0296009 24.104 0.0213331C23.7822 0.0124443 23.4604 0.00888886 23.1387 0.00622219C22.7564 0.00622219 22.3742 0.00622219 21.992 0.00622219H10.0098C9.62755 0.00622219 9.24533 0.00622219 8.8631 0.00622219C8.54133 0.00622219 8.21955 0.0124443 7.89777 0.0213331C7.19336 0.0296009 6.49059 0.0914088 5.79555 0.206222C5.10073 0.324809 4.42753 0.546515 3.79821 0.864C2.53304 1.50841 1.50434 2.5368 0.859548 3.80178C0.542286 4.43189 0.320312 5.1056 0.200882 5.80089C0.0868027 6.49571 0.0252949 7.19815 0.0168816 7.90222C0.00799276 8.224 0.00443669 8.54578 0.00177002 8.86755C0.00177002 9.24978 0.00177002 9.632 0.00177002 10.0142V21.9902C0.00177002 22.3724 0.00177002 22.7547 0.00177002 23.1369C0.00177002 23.4587 0.00799276 23.7804 0.0168816 24.1022C0.0252949 24.8063 0.0868027 25.5087 0.200882 26.2036C0.320312 26.8988 0.542286 27.5726 0.859548 28.2027C1.50434 29.4676 2.53304 30.496 3.79821 31.1404C4.42753 31.4579 5.10073 31.6796 5.79555 31.7982C6.49059 31.913 7.19336 31.9748 7.89777 31.9831C8.21955 31.992 8.54133 31.9956 8.8631 31.9982C9.24533 31.9982 9.62755 31.9982 10.0098 31.9982H21.9902C22.3724 31.9982 22.7547 31.9982 23.1369 31.9982C23.4587 31.9982 23.7804 31.992 24.1022 31.9831C24.8066 31.9748 25.5094 31.913 26.2044 31.7982C26.8993 31.6796 27.5725 31.4579 28.2018 31.1404C29.4669 30.496 30.4956 29.4676 31.1404 28.2027C31.4577 27.5726 31.6797 26.8988 31.7991 26.2036C31.9132 25.5087 31.9747 24.8063 31.9831 24.1022C31.992 23.7804 31.9956 23.4587 31.9982 23.1369C31.9982 22.7547 31.9982 22.3724 31.9982 21.9902L32 10.0098Z" fill="url(#paint0_linear_2_1049)"/>
<path d="M18.5458 8.29245C17.3751 8.20356 16.3822 8.94667 15.8276 8.94667C15.2729 8.94667 14.3982 8.31112 13.4791 8.32445C12.272 8.34223 11.16 9.02667 10.5369 10.1076C9.28356 12.2836 10.2169 15.5076 11.4382 17.2738C12.0356 18.136 12.7485 19.1085 13.6836 19.0729C14.5849 19.0373 14.928 18.4907 16.0142 18.4907C17.1005 18.4907 17.4089 19.0729 18.3618 19.056C19.3307 19.0373 19.9449 18.1751 20.5378 17.3076C20.962 16.6859 21.2938 16.0059 21.5227 15.2889C21.5013 15.28 19.6329 14.5636 19.6142 12.4107C19.5973 10.6116 21.0836 9.744 21.1511 9.70489C20.3076 8.46312 19.0053 8.32623 18.5458 8.29245Z" fill="#D0112B"/>
<path d="M17.824 7.12711C18.3209 6.52622 18.6551 5.68889 18.5636 4.856C17.8524 4.88444 16.9822 5.33333 16.4684 5.93333C16.0089 6.46667 15.6053 7.31822 15.7147 8.13333C16.5129 8.19467 17.3271 7.728 17.824 7.12711Z" fill="#D0112B"/>
<path d="M6.17866 24.9209H4.93422L4.63555 25.8027H4.10933L5.28711 22.5404H5.83466L7.01244 25.8027H6.47911L6.17866 24.9209ZM5.06666 24.5138H6.05244L5.56622 23.0827H5.55289L5.06666 24.5138Z" fill="black"/>
<path d="M9.56801 24.6133C9.56801 25.3662 9.17245 25.8436 8.57512 25.8436C8.42232 25.8495 8.27097 25.812 8.13853 25.7356C8.0061 25.6592 7.89799 25.5468 7.82667 25.4116H7.81512V26.5893H7.32712V23.424H7.80001V23.8338H7.8089C7.88031 23.6958 7.98932 23.5808 8.12335 23.5021C8.25737 23.4235 8.41091 23.3844 8.56623 23.3893C9.16978 23.3858 9.56801 23.8604 9.56801 24.6133ZM9.06579 24.6133C9.06579 24.1164 8.82401 23.7973 8.43734 23.7973C8.06401 23.7973 7.81512 24.1227 7.81512 24.6133C7.81512 25.104 8.06401 25.4302 8.43734 25.4302C8.81067 25.4302 9.06667 25.1129 9.06667 24.6133H9.06579Z" fill="black"/>
<path d="M12.2151 24.6133C12.2151 25.3662 11.8195 25.8436 11.2231 25.8436C11.0703 25.8496 10.9189 25.8122 10.7864 25.7357C10.654 25.6593 10.5459 25.5469 10.4747 25.4116H10.4631V26.5893H9.9751V23.424H10.4471V23.8338H10.456C10.5276 23.6958 10.6368 23.5808 10.771 23.5022C10.9051 23.4235 11.0588 23.3844 11.2142 23.3893C11.8222 23.3858 12.2151 23.8604 12.2151 24.6133ZM11.7138 24.6133C11.7138 24.1164 11.472 23.7973 11.0853 23.7973C10.6987 23.7973 10.4631 24.1227 10.4631 24.6133C10.4631 25.104 10.7111 25.4302 11.0853 25.4302C11.4595 25.4302 11.7138 25.1129 11.7138 24.6133Z" fill="black"/>
<path d="M12.6311 22.5404H13.12V25.8027H12.6311V22.5404Z" fill="black"/>
<path d="M15.6889 25.104C15.6213 25.5387 15.2098 25.848 14.6649 25.848C13.9662 25.848 13.5431 25.3751 13.5431 24.6249C13.5431 23.8747 13.9725 23.3804 14.6445 23.3804C15.3165 23.3804 15.7156 23.8462 15.7156 24.5671V24.7351H14.0356V24.7644C14.0356 25.1778 14.2845 25.4516 14.6756 25.4516C14.9538 25.4516 15.16 25.3111 15.2249 25.1031L15.6889 25.104ZM14.0382 24.3929H15.2276C15.216 24.0284 14.9858 23.7707 14.6445 23.7707C14.3031 23.7707 14.0631 24.0347 14.0382 24.3947V24.3929Z" fill="black"/>
<path d="M16.1271 24.1707C16.1271 23.1369 16.7102 22.4862 17.6213 22.4862C18.3609 22.4862 18.9191 22.9404 19.0053 23.6213H18.5031C18.4616 23.4203 18.3503 23.2405 18.1889 23.1137C18.0275 22.987 17.8264 22.9215 17.6213 22.9289C17.0284 22.9289 16.6435 23.4151 16.6435 24.1733C16.6435 24.9316 17.0231 25.4178 17.6213 25.4178C18.0764 25.4178 18.3991 25.1849 18.5013 24.7911H19.0053C18.8809 25.4649 18.3698 25.8578 17.6195 25.8578C16.7058 25.8569 16.1271 25.2107 16.1271 24.1707Z" fill="black"/>
<path d="M19.3093 25.1271C19.3093 24.7111 19.6284 24.4551 20.1938 24.424L20.8444 24.3849V24.2018C20.8444 23.9351 20.6667 23.7796 20.3671 23.7796C20.0853 23.7796 19.9084 23.9147 19.8658 24.1271H19.4044C19.4311 23.6978 19.7973 23.3813 20.3822 23.3813C20.9671 23.3813 21.3271 23.6862 21.3271 24.1636V25.8027H20.8595V25.4116H20.848C20.7731 25.5443 20.6638 25.6545 20.5316 25.7305C20.3995 25.8065 20.2493 25.8455 20.0969 25.8436C19.6347 25.8436 19.3093 25.5538 19.3093 25.1271ZM20.8444 24.912V24.7244L20.2587 24.7609C19.9671 24.7813 19.8027 24.9093 19.8027 25.1164C19.8027 25.3236 19.9742 25.4604 20.2364 25.4604C20.5778 25.4569 20.8444 25.2222 20.8444 24.912Z" fill="black"/>
<path d="M21.8489 23.424H22.3111V23.8293H22.3227C22.3523 23.7008 22.4253 23.5864 22.5294 23.5055C22.6335 23.4245 22.7624 23.3819 22.8942 23.3849C22.9507 23.3856 23.007 23.3919 23.0622 23.4036V23.8578C22.991 23.8369 22.9169 23.8276 22.8427 23.8302C22.528 23.8302 22.3342 24.0409 22.3342 24.3778V25.8H21.8453L21.8489 23.424Z" fill="black"/>
<path d="M25.3378 25.104C25.2702 25.5387 24.8587 25.848 24.3138 25.848C23.6151 25.848 23.192 25.3751 23.192 24.6249C23.192 23.8747 23.6222 23.3804 24.2933 23.3804C24.9644 23.3804 25.3653 23.8462 25.3653 24.5671V24.7351H23.6853V24.7644C23.6853 25.1778 23.9342 25.4516 24.3253 25.4516C24.6035 25.4516 24.8089 25.3111 24.8747 25.1031L25.3378 25.104ZM23.6871 24.3929H24.8764C24.8658 24.0284 24.6347 23.7707 24.2933 23.7707C23.952 23.7707 23.712 24.0347 23.6871 24.3947V24.3929Z" fill="black"/>
<path d="M27.0738 25.8018H26.6293V24.8329H25.7067V24.3929H26.6284V23.424H27.0729V24.3929H28V24.8329H27.0738V25.8018Z" fill="black"/>
</g>
<defs>
<linearGradient id="paint0_linear_2_1049" x1="16" y1="31.8756" x2="16" y2="0.689776" gradientUnits="userSpaceOnUse">
<stop stop-color="#E0E0E0"/>
<stop offset="1" stop-color="#F8F8FA"/>
</linearGradient>
<clipPath id="clip0_2_1049">
<rect width="32" height="32" fill="white"/>
</clipPath>
</defs>
</svg>
