<svg width="19" height="18" viewBox="0 0 19 18" fill="none" xmlns="http://www.w3.org/2000/svg">
<path d="M18.6283 11.1012C18.2708 12.2624 17.7488 13.367 17.0783 14.3817C16.0915 15.8049 15.058 17.1679 13.5299 17.2077C11.9573 17.2205 11.4553 16.3241 9.69772 16.3241C8.05869 16.3241 7.50378 17.1671 6.05274 17.2205C4.5428 17.2851 3.4043 15.7553 2.41001 14.3277C0.44332 11.4664 -1.05676 6.34115 0.951454 2.95164C1.42892 2.10228 2.12071 1.39156 2.95854 0.889639C3.79637 0.387719 4.75125 0.111942 5.72889 0.0895931C7.21995 0.0430071 8.61437 1.07093 9.49013 1.07093C10.3274 1.07093 12.0049 -0.166626 13.8312 0.0189671C14.6608 0.0490829 15.472 0.270878 16.2007 0.6668C16.9294 1.06272 17.5555 1.62192 18.0296 2.30019C17.2871 2.73803 16.6679 3.35546 16.2293 4.09514C15.7907 4.83483 15.547 5.67276 15.5208 6.53124C15.5204 7.51553 15.8166 8.47735 16.3711 9.29239C16.9256 10.1074 17.7129 10.7383 18.6313 11.1034" fill="black"/>
</svg>
